<?xml version="1.0" encoding="UTF-8" standalone="no"?>
<!-- Created with Inkscape (http://www.inkscape.org/) -->

<svg
   xmlns:dc="http://purl.org/dc/elements/1.1/"
   xmlns:cc="http://creativecommons.org/ns#"
   xmlns:rdf="http://www.w3.org/1999/02/22-rdf-syntax-ns#"
   xmlns:svg="http://www.w3.org/2000/svg"
   xmlns="http://www.w3.org/2000/svg"
   xmlns:xlink="http://www.w3.org/1999/xlink"
   xmlns:sodipodi="http://sodipodi.sourceforge.net/DTD/sodipodi-0.dtd"
   xmlns:inkscape="http://www.inkscape.org/namespaces/inkscape"
   width="100%"
   height="100%"
   x="0px"
   y="0px"
   id="svg13426"
   viewBox="0 0 2422.1874 1539.3125"
   enable-background="new 0 0 2437.8 1530.7"
   xml:space="preserve"
   version="1.1"
   inkscape:version="0.48.5 r10040"
   sodipodi:docname="TemplateBack.svg">
  <defs
   id="defs13428" />
  <sodipodi:namedview
   id="base"
   pagecolor="#ffffff"
   bordercolor="#666666"
   borderopacity="1.0"
   inkscape:pageopacity="0.0"
   inkscape:pageshadow="2"
   inkscape:zoom="0.7"
   inkscape:cx="633.64649"
   inkscape:cy="333.28411"
   inkscape:document-units="px"
   inkscape:current-layer="layer1"
   showgrid="false"
   fit-margin-top="0"
   fit-margin-left="0"
   fit-margin-right="0"
   fit-margin-bottom="0"
   inkscape:window-width="1920"
   inkscape:window-height="1018"
   inkscape:window-x="-8"
   inkscape:window-y="-8"
   inkscape:window-maximized="1"
   showguides="false">
    <inkscape:grid
   type="xygrid"
   id="grid15322"
   empspacing="5"
   visible="true"
   enabled="true"
   snapvisiblegridlinesonly="true"
   originx="0.012436704px"
   originy="-0.012548828px" />
  </sodipodi:namedview>
  <metadata
   id="metadata13431">
    <rdf:RDF>
      <cc:Work
   rdf:about="">
        <dc:format>image/svg+xml</dc:format>
        <dc:type
   rdf:resource="http://purl.org/dc/dcmitype/StillImage" />
        <dc:title />
      </cc:Work>
    </rdf:RDF>
  </metadata>
  <g
   inkscape:label="Layer 1"
   inkscape:groupmode="layer"
   id="layer1"
   transform="translate(-252.81256,-446.9375)">
    
    
    
    
    
    
    
    


    
    
    
    
    
    
    
    
    
    
    


    
    
    
    


    
    
    
    


    


  <rect
   style="fill:#ffffff;stroke:#8f9398;stroke-width:4.98402977;stroke-miterlimit:10"
   id="rect10"
   height="1534.332"
   width="2417.1902"
   stroke-miterlimit="10"
   y="449.43851"
   x="255.31696" /><g
   transform="matrix(9.9146433,0,0,10.021763,-2700.2385,99.679208)"
   id="g12"><path
     style="fill:#4d4d4d"
     inkscape:connector-curvature="0"
     id="path14"
     d="m 302.4,156.8 h 3 v 0.5 H 303 v 1.4 h 2.2 v 0.5 H 303 v 1.5 h 2.4 v 0.5 h -3 v -4.4 z" /><path
     style="fill:#4d4d4d"
     inkscape:connector-curvature="0"
     id="path16"
     d="m 306.2,160.1 c 0,0.5 0.4,0.6 0.8,0.6 0.3,0 0.8,-0.1 0.8,-0.5 0,-0.4 -0.5,-0.5 -1,-0.6 -0.5,-0.1 -1,-0.3 -1,-0.9 0,-0.6 0.6,-0.9 1.2,-0.9 0.7,0 1.2,0.2 1.3,1 h -0.5 c 0,-0.4 -0.4,-0.5 -0.7,-0.5 -0.3,0 -0.7,0.1 -0.7,0.4 0,0.4 0.5,0.4 1,0.5 0.5,0.1 1,0.3 1,0.9 0,0.7 -0.7,1 -1.3,1 -0.7,0 -1.3,-0.3 -1.3,-1 h 0.4 z" /><path
     style="fill:#4d4d4d"
     inkscape:connector-curvature="0"
     id="path18"
     d="m 309.4,158 h 0.6 v 0.4 h -0.6 v 1.9 c 0,0.2 0.1,0.3 0.4,0.3 h 0.2 v 0.4 h -0.4 c -0.5,0 -0.7,-0.1 -0.7,-0.7 v -2 h -0.5 V 158 h 0.5 v -1 h 0.5 v 1 z" /><path
     style="fill:#4d4d4d"
     inkscape:connector-curvature="0"
     id="path20"
     d="m 313.1,160.1 c -0.1,0.7 -0.6,1.1 -1.3,1.1 -1,0 -1.5,-0.7 -1.5,-1.6 0,-0.9 0.6,-1.6 1.5,-1.6 1.1,0 1.4,1 1.4,1.8 h -2.3 c 0,0.5 0.3,1 1,1 0.4,0 0.7,-0.2 0.8,-0.6 h 0.4 z m -0.5,-0.9 c 0,-0.5 -0.4,-0.9 -0.9,-0.9 -0.5,0 -0.9,0.4 -0.9,0.9 h 1.8 z" /><path
     style="fill:#4d4d4d"
     inkscape:connector-curvature="0"
     id="path22"
     d="m 317.8,161.1 h -0.5 v -0.4 h 0 c -0.2,0.3 -0.6,0.5 -1,0.5 -1,0 -1.4,-0.8 -1.4,-1.6 0,-0.8 0.5,-1.6 1.4,-1.6 0.3,0 0.8,0.1 1,0.5 h 0 v -1.6 h 0.5 v 4.2 z m -1.5,-0.4 c 0.7,0 0.9,-0.6 0.9,-1.2 0,-0.6 -0.3,-1.2 -1,-1.2 -0.7,0 -0.9,0.6 -0.9,1.2 0.1,0.6 0.4,1.2 1,1.2 z" /><path
     style="fill:#4d4d4d"
     inkscape:connector-curvature="0"
     id="path24"
     d="m 319.8,157.9 c 1,0 1.5,0.7 1.5,1.6 0,0.9 -0.5,1.6 -1.5,1.6 -1,0 -1.5,-0.7 -1.5,-1.6 0,-0.9 0.5,-1.6 1.5,-1.6 z m 0,2.8 c 0.5,0 1,-0.4 1,-1.2 0,-0.8 -0.4,-1.2 -1,-1.2 -0.5,0 -1,0.4 -1,1.2 0,0.8 0.4,1.2 1,1.2 z" /><path
     style="fill:#4d4d4d"
     inkscape:connector-curvature="0"
     id="path26"
     d="m 323.8,159 c -0.1,-0.4 -0.3,-0.6 -0.8,-0.6 -0.7,0 -1,0.6 -1,1.2 0,0.6 0.3,1.1 0.9,1.1 0.5,0 0.8,-0.3 0.9,-0.8 h 0.5 c -0.1,0.8 -0.6,1.2 -1.4,1.2 -0.9,0 -1.5,-0.7 -1.5,-1.6 0,-0.9 0.5,-1.7 1.5,-1.7 0.7,0 1.3,0.3 1.3,1.1 h -0.4 z" /><path
     style="fill:#4d4d4d"
     inkscape:connector-curvature="0"
     id="path28"
     d="m 327.4,161.1 h -0.5 v -0.5 h 0 c -0.2,0.4 -0.6,0.6 -1,0.6 -0.8,0 -1.1,-0.5 -1.1,-1.1 v -2 h 0.5 v 2.1 c 0,0.4 0.2,0.6 0.6,0.6 0.6,0 0.9,-0.4 0.9,-1 V 158 h 0.5 v 3.1 z" /><path
     style="fill:#4d4d4d"
     inkscape:connector-curvature="0"
     id="path30"
     d="m 328,158 h 0.5 v 0.5 h 0 c 0.2,-0.3 0.6,-0.5 1,-0.5 0.4,0 0.7,0.1 0.9,0.5 0.2,-0.3 0.6,-0.5 1,-0.5 0.6,0 1,0.3 1,0.9 v 2.3 h -0.5 v -2 c 0,-0.4 -0.1,-0.7 -0.6,-0.7 -0.5,0 -0.8,0.3 -0.8,0.8 v 1.9 H 330 v -2 c 0,-0.4 -0.1,-0.7 -0.6,-0.7 -0.6,0 -0.8,0.6 -0.8,0.8 v 1.9 H 328 V 158 z" /><path
     style="fill:#4d4d4d"
     inkscape:connector-curvature="0"
     id="path32"
     d="m 335.6,160.1 c -0.1,0.7 -0.6,1.1 -1.3,1.1 -1,0 -1.5,-0.7 -1.5,-1.6 0,-0.9 0.6,-1.6 1.5,-1.6 1.1,0 1.4,1 1.4,1.8 h -2.3 c 0,0.5 0.3,1 1,1 0.4,0 0.7,-0.2 0.8,-0.6 h 0.4 z m -0.5,-0.9 c 0,-0.5 -0.4,-0.9 -0.9,-0.9 -0.5,0 -0.9,0.4 -0.9,0.9 h 1.8 z" /><path
     style="fill:#4d4d4d"
     inkscape:connector-curvature="0"
     id="path34"
     d="m 336,158 h 0.5 v 0.5 h 0 c 0.2,-0.4 0.6,-0.6 1,-0.6 0.8,0 1.1,0.5 1.1,1.1 v 2 h -0.5 v -2 c 0,-0.4 -0.2,-0.6 -0.6,-0.6 -0.6,0 -0.9,0.4 -0.9,1 v 1.8 H 336 V 158 z" /><path
     style="fill:#4d4d4d"
     inkscape:connector-curvature="0"
     id="path36"
     d="m 339.9,158 h 0.6 v 0.4 h -0.6 v 1.9 c 0,0.2 0.1,0.3 0.4,0.3 h 0.2 v 0.4 h -0.4 c -0.5,0 -0.7,-0.1 -0.7,-0.7 v -2 h -0.5 V 158 h 0.5 v -1 h 0.5 v 1 z" /><path
     style="fill:#4d4d4d"
     inkscape:connector-curvature="0"
     id="path38"
     d="m 342.3,157.9 c 1,0 1.5,0.7 1.5,1.6 0,0.9 -0.5,1.6 -1.5,1.6 -1,0 -1.5,-0.7 -1.5,-1.6 0,-0.9 0.5,-1.6 1.5,-1.6 z m 0,2.8 c 0.5,0 1,-0.4 1,-1.2 0,-0.8 -0.4,-1.2 -1,-1.2 -0.5,0 -1,0.4 -1,1.2 0,0.8 0.4,1.2 1,1.2 z" /><path
     style="fill:#4d4d4d"
     inkscape:connector-curvature="0"
     id="path40"
     d="m 347.9,159 c -0.1,-0.4 -0.3,-0.6 -0.8,-0.6 -0.7,0 -1,0.6 -1,1.2 0,0.6 0.3,1.1 0.9,1.1 0.5,0 0.8,-0.3 0.9,-0.8 h 0.5 c -0.1,0.8 -0.6,1.2 -1.4,1.2 -0.9,0 -1.5,-0.7 -1.5,-1.6 0,-0.9 0.5,-1.7 1.5,-1.7 0.7,0 1.3,0.3 1.3,1.1 h -0.4 z" /><path
     style="fill:#4d4d4d"
     inkscape:connector-curvature="0"
     id="path42"
     d="m 351.5,160.1 c -0.1,0.7 -0.6,1.1 -1.3,1.1 -1,0 -1.5,-0.7 -1.5,-1.6 0,-0.9 0.6,-1.6 1.5,-1.6 1.1,0 1.4,1 1.4,1.8 h -2.3 c 0,0.5 0.3,1 1,1 0.4,0 0.7,-0.2 0.8,-0.6 h 0.4 z m -0.5,-0.9 c 0,-0.5 -0.4,-0.9 -0.9,-0.9 -0.5,0 -0.9,0.4 -0.9,0.9 h 1.8 z" /><path
     style="fill:#4d4d4d"
     inkscape:connector-curvature="0"
     id="path44"
     d="m 351.9,158 h 0.5 v 0.7 h 0 c 0.2,-0.5 0.6,-0.7 1.1,-0.7 v 0.5 c -0.8,0 -1.1,0.5 -1.1,1.3 v 1.4 h -0.5 V 158 z" /><path
     style="fill:#4d4d4d"
     inkscape:connector-curvature="0"
     id="path46"
     d="m 354.5,158 h 0.6 v 0.4 h -0.6 v 1.9 c 0,0.2 0.1,0.3 0.4,0.3 h 0.2 v 0.4 h -0.4 c -0.5,0 -0.7,-0.1 -0.7,-0.7 v -2 h -0.5 V 158 h 0.5 v -1 h 0.5 v 1 z" /><path
     style="fill:#4d4d4d"
     inkscape:connector-curvature="0"
     id="path48"
     d="m 356,157.4 h -0.5 v -0.6 h 0.5 v 0.6 z m -0.5,0.6 h 0.5 v 3.1 h -0.5 V 158 z" /><path
     style="fill:#4d4d4d"
     inkscape:connector-curvature="0"
     id="path50"
     d="m 356.9,158.4 h -0.5 V 158 h 0.5 v -0.5 c 0,-0.5 0.3,-0.8 0.9,-0.8 0.1,0 0.2,0 0.3,0 v 0.4 c -0.1,0 -0.2,0 -0.3,0 -0.2,0 -0.4,0.1 -0.4,0.3 v 0.4 h 0.6 v 0.4 h -0.6 v 2.7 h -0.5 v -2.5 z m 1.6,-1 v -0.6 h 0.5 v 0.6 h -0.5 z m 0,3.7 V 158 h 0.5 v 3.1 h -0.5 z" /><path
     style="fill:#4d4d4d"
     inkscape:connector-curvature="0"
     id="path52"
     d="m 361.7,159 c -0.1,-0.4 -0.3,-0.6 -0.8,-0.6 -0.7,0 -1,0.6 -1,1.2 0,0.6 0.3,1.1 0.9,1.1 0.5,0 0.8,-0.3 0.9,-0.8 h 0.5 c -0.1,0.8 -0.6,1.2 -1.4,1.2 -0.9,0 -1.5,-0.7 -1.5,-1.6 0,-0.9 0.5,-1.7 1.5,-1.7 0.7,0 1.3,0.3 1.3,1.1 h -0.4 z" /><path
     style="fill:#4d4d4d"
     inkscape:connector-curvature="0"
     id="path54"
     d="m 365.4,161.1 c -0.1,0.1 -0.2,0.1 -0.4,0.1 -0.3,0 -0.4,-0.1 -0.4,-0.5 -0.3,0.3 -0.7,0.5 -1.1,0.5 -0.6,0 -1,-0.3 -1,-0.9 0,-0.7 0.5,-0.9 1,-1 0.6,-0.1 1,-0.1 1,-0.5 0,-0.4 -0.4,-0.5 -0.7,-0.5 -0.4,0 -0.8,0.1 -0.8,0.6 h -0.5 c 0,-0.8 0.6,-1 1.3,-1 0.6,0 1.2,0.1 1.2,0.9 v 1.6 c 0,0.2 0,0.3 0.2,0.3 0,0 0.1,0 0.2,0 v 0.4 z m -0.8,-1.6 c -0.2,0.1 -0.6,0.1 -0.9,0.2 -0.3,0.1 -0.6,0.2 -0.6,0.6 0,0.3 0.3,0.5 0.6,0.5 0.7,0 0.9,-0.4 0.9,-0.7 v -0.6 z" /><path
     style="fill:#4d4d4d"
     inkscape:connector-curvature="0"
     id="path56"
     d="m 370.1,162.3 h -0.5 v -1.6 h 0 c -0.2,0.3 -0.6,0.5 -1,0.5 -1,0 -1.4,-0.8 -1.4,-1.6 0,-0.8 0.5,-1.6 1.4,-1.6 0.3,0 0.8,0.1 1,0.5 h 0 V 158 h 0.5 v 4.3 z m -1.5,-1.6 c 0.7,0 0.9,-0.6 0.9,-1.2 0,-0.6 -0.3,-1.2 -1,-1.2 -0.7,0 -0.9,0.6 -0.9,1.2 0.1,0.6 0.4,1.2 1,1.2 z" /><path
     style="fill:#4d4d4d"
     inkscape:connector-curvature="0"
     id="path58"
     d="m 373.3,161.1 h -0.5 v -0.5 h 0 c -0.2,0.4 -0.6,0.6 -1,0.6 -0.8,0 -1.1,-0.5 -1.1,-1.1 v -2 h 0.5 v 2.1 c 0,0.4 0.2,0.6 0.6,0.6 0.6,0 0.9,-0.4 0.9,-1 V 158 h 0.5 v 3.1 z" /><path
     style="fill:#4d4d4d"
     inkscape:connector-curvature="0"
     id="path60"
     d="m 376.5,160.1 c -0.1,0.7 -0.6,1.1 -1.3,1.1 -1,0 -1.5,-0.7 -1.5,-1.6 0,-0.9 0.6,-1.6 1.5,-1.6 1.1,0 1.4,1 1.4,1.8 h -2.3 c 0,0.5 0.3,1 1,1 0.4,0 0.7,-0.2 0.8,-0.6 h 0.4 z m -0.5,-0.9 c 0,-0.5 -0.4,-0.9 -0.9,-0.9 -0.5,0 -0.9,0.4 -0.9,0.9 h 1.8 z" /><path
     style="fill:#4d4d4d"
     inkscape:connector-curvature="0"
     id="path62"
     d="m 381.1,160.1 c -0.1,0.7 -0.6,1.1 -1.3,1.1 -1,0 -1.5,-0.7 -1.5,-1.6 0,-0.9 0.6,-1.6 1.5,-1.6 1.1,0 1.4,1 1.4,1.8 h -2.3 c 0,0.5 0.3,1 1,1 0.4,0 0.7,-0.2 0.8,-0.6 h 0.4 z m -0.5,-0.9 c 0,-0.5 -0.4,-0.9 -0.9,-0.9 -0.5,0 -0.9,0.4 -0.9,0.9 h 1.8 z" /><path
     style="fill:#4d4d4d"
     inkscape:connector-curvature="0"
     id="path64"
     d="m 381.6,156.8 h 0.5 v 4.3 h -0.5 v -4.3 z" /><path
     style="fill:#4d4d4d"
     inkscape:connector-curvature="0"
     id="path66"
     d="m 384.3,158 h 0.5 v 0.4 h 0 c 0.2,-0.3 0.6,-0.5 1,-0.5 1,0 1.4,0.8 1.4,1.6 0,0.9 -0.5,1.6 -1.4,1.6 -0.3,0 -0.8,-0.1 -1,-0.5 h 0 v 1.6 h -0.5 V 158 z m 1.4,0.3 c -0.7,0 -0.9,0.6 -0.9,1.2 0,0.6 0.3,1.2 1,1.2 0.7,0 0.9,-0.6 0.9,-1.2 0,-0.6 -0.3,-1.2 -1,-1.2 z" /><path
     style="fill:#4d4d4d"
     inkscape:connector-curvature="0"
     id="path68"
     d="m 389,157.9 c 1,0 1.5,0.7 1.5,1.6 0,0.9 -0.5,1.6 -1.5,1.6 -1,0 -1.5,-0.7 -1.5,-1.6 0,-0.9 0.5,-1.6 1.5,-1.6 z m 0,2.8 c 0.5,0 1,-0.4 1,-1.2 0,-0.8 -0.4,-1.2 -1,-1.2 -0.5,0 -1,0.4 -1,1.2 0,0.8 0.5,1.2 1,1.2 z" /><path
     style="fill:#4d4d4d"
     inkscape:connector-curvature="0"
     id="path70"
     d="m 390.9,158 h 0.5 v 0.7 h 0 c 0.2,-0.5 0.6,-0.7 1.1,-0.7 v 0.5 c -0.8,0 -1.1,0.5 -1.1,1.3 v 1.4 h -0.5 V 158 z" /><path
     style="fill:#4d4d4d"
     inkscape:connector-curvature="0"
     id="path72"
     d="m 393.5,158 h 0.6 v 0.4 h -0.6 v 1.9 c 0,0.2 0.1,0.3 0.4,0.3 h 0.2 v 0.4 h -0.4 c -0.5,0 -0.7,-0.1 -0.7,-0.7 v -2 h -0.5 V 158 h 0.5 v -1 h 0.5 v 1 z" /><path
     style="fill:#4d4d4d"
     inkscape:connector-curvature="0"
     id="path74"
     d="m 397.3,161.1 c -0.1,0.1 -0.2,0.1 -0.4,0.1 -0.3,0 -0.4,-0.1 -0.4,-0.5 -0.3,0.3 -0.7,0.5 -1.1,0.5 -0.6,0 -1,-0.3 -1,-0.9 0,-0.7 0.5,-0.9 1,-1 0.6,-0.1 1,-0.1 1,-0.5 0,-0.4 -0.4,-0.5 -0.7,-0.5 -0.4,0 -0.7,0.1 -0.8,0.6 h -0.5 c 0,-0.8 0.6,-1 1.3,-1 0.6,0 1.2,0.1 1.2,0.9 v 1.6 c 0,0.2 0,0.3 0.2,0.3 0,0 0.1,0 0.2,0 v 0.4 z m -0.8,-1.6 c -0.2,0.1 -0.6,0.1 -0.9,0.2 -0.3,0.1 -0.6,0.2 -0.6,0.6 0,0.3 0.3,0.5 0.6,0.5 0.7,0 0.9,-0.4 0.9,-0.7 v -0.6 z" /><path
     style="fill:#4d4d4d"
     inkscape:connector-curvature="0"
     id="path76"
     d="m 400.4,161.1 h -0.5 v -0.4 h 0 c -0.2,0.3 -0.6,0.5 -1,0.5 -1,0 -1.4,-0.8 -1.4,-1.6 0,-0.8 0.5,-1.6 1.4,-1.6 0.3,0 0.8,0.1 1,0.5 h 0 v -1.6 h 0.5 v 4.2 z m -1.5,-0.4 c 0.7,0 0.9,-0.6 0.9,-1.2 0,-0.6 -0.3,-1.2 -1,-1.2 -0.7,0 -0.9,0.6 -0.9,1.2 0.1,0.6 0.4,1.2 1,1.2 z" /><path
     style="fill:#4d4d4d"
     inkscape:connector-curvature="0"
     id="path78"
     d="m 402.4,157.9 c 1,0 1.5,0.7 1.5,1.6 0,0.9 -0.5,1.6 -1.5,1.6 -1,0 -1.5,-0.7 -1.5,-1.6 -0.1,-0.9 0.5,-1.6 1.5,-1.6 z m 0,2.8 c 0.5,0 1,-0.4 1,-1.2 0,-0.8 -0.4,-1.2 -1,-1.2 -0.5,0 -1,0.4 -1,1.2 0,0.8 0.4,1.2 1,1.2 z" /><path
     style="fill:#4d4d4d"
     inkscape:connector-curvature="0"
     id="path80"
     d="m 404.3,158 h 0.5 v 0.7 h 0 c 0.2,-0.5 0.6,-0.7 1.1,-0.7 v 0.5 c -0.8,0 -1.1,0.5 -1.1,1.3 v 1.4 h -0.5 V 158 z" /><path
     style="fill:#4d4d4d"
     inkscape:connector-curvature="0"
     id="path82"
     d="m 410.4,161.1 c -0.1,0.1 -0.2,0.1 -0.4,0.1 -0.3,0 -0.4,-0.1 -0.4,-0.5 -0.3,0.3 -0.7,0.5 -1.1,0.5 -0.6,0 -1,-0.3 -1,-0.9 0,-0.7 0.5,-0.9 1,-1 0.6,-0.1 1,-0.1 1,-0.5 0,-0.4 -0.4,-0.5 -0.7,-0.5 -0.4,0 -0.7,0.1 -0.8,0.6 h -0.5 c 0,-0.8 0.6,-1 1.3,-1 0.6,0 1.2,0.1 1.2,0.9 v 1.6 c 0,0.2 0,0.3 0.2,0.3 0,0 0.1,0 0.2,0 v 0.4 z m -0.8,-1.6 c -0.2,0.1 -0.6,0.1 -0.9,0.2 -0.3,0.1 -0.6,0.2 -0.6,0.6 0,0.3 0.3,0.5 0.6,0.5 0.7,0 0.9,-0.4 0.9,-0.7 v -0.6 z" /><path
     style="fill:#4d4d4d"
     inkscape:connector-curvature="0"
     id="path84"
     d="m 410.8,158 h 0.5 v 0.4 h 0 c 0.2,-0.3 0.6,-0.5 1,-0.5 1,0 1.4,0.8 1.4,1.6 0,0.9 -0.5,1.6 -1.4,1.6 -0.3,0 -0.8,-0.1 -1,-0.5 h 0 v 1.6 h -0.5 V 158 z m 1.4,0.3 c -0.7,0 -0.9,0.6 -0.9,1.2 0,0.6 0.3,1.2 1,1.2 0.7,0 0.9,-0.6 0.9,-1.2 0,-0.6 -0.3,-1.2 -1,-1.2 z" /><path
     style="fill:#4d4d4d"
     inkscape:connector-curvature="0"
     id="path86"
     d="m 414.1,158 h 0.5 v 0.7 h 0 c 0.2,-0.5 0.6,-0.7 1.1,-0.7 v 0.5 c -0.8,0 -1.1,0.5 -1.1,1.3 v 1.4 h -0.5 V 158 z" /><path
     style="fill:#4d4d4d"
     inkscape:connector-curvature="0"
     id="path88"
     d="m 417.2,157.9 c 1,0 1.5,0.7 1.5,1.6 0,0.9 -0.5,1.6 -1.5,1.6 -1,0 -1.5,-0.7 -1.5,-1.6 0,-0.9 0.5,-1.6 1.5,-1.6 z m 0,2.8 c 0.5,0 1,-0.4 1,-1.2 0,-0.8 -0.4,-1.2 -1,-1.2 -0.6,0 -1,0.4 -1,1.2 0.1,0.8 0.5,1.2 1,1.2 z" /><path
     style="fill:#4d4d4d"
     inkscape:connector-curvature="0"
     id="path90"
     d="m 419.2,156.8 h 0.5 v 1.6 h 0 c 0.2,-0.3 0.6,-0.5 1,-0.5 1,0 1.4,0.8 1.4,1.6 0,0.9 -0.5,1.6 -1.4,1.6 -0.3,0 -0.8,-0.1 -1,-0.5 h 0 v 0.4 h -0.5 v -4.2 z m 1.4,1.5 c -0.7,0 -0.9,0.6 -0.9,1.2 0,0.6 0.3,1.2 1,1.2 0.7,0 0.9,-0.6 0.9,-1.2 0,-0.6 -0.3,-1.2 -1,-1.2 z" /><path
     style="fill:#4d4d4d"
     inkscape:connector-curvature="0"
     id="path92"
     d="m 423.9,157.9 c 1,0 1.5,0.7 1.5,1.6 0,0.9 -0.5,1.6 -1.5,1.6 -1,0 -1.5,-0.7 -1.5,-1.6 0,-0.9 0.6,-1.6 1.5,-1.6 z m 0,2.8 c 0.5,0 1,-0.4 1,-1.2 0,-0.8 -0.4,-1.2 -1,-1.2 -0.5,0 -1,0.4 -1,1.2 0.1,0.8 0.5,1.2 1,1.2 z m 0.2,-4 h 0.7 l -0.8,0.9 h -0.4 l 0.5,-0.9 z" /><path
     style="fill:#4d4d4d"
     inkscape:connector-curvature="0"
     id="path94"
     d="m 430.1,160.1 c -0.1,0.7 -0.6,1.1 -1.3,1.1 -1,0 -1.5,-0.7 -1.5,-1.6 0,-0.9 0.6,-1.6 1.5,-1.6 1.1,0 1.4,1 1.4,1.8 h -2.3 c 0,0.5 0.3,1 1,1 0.4,0 0.7,-0.2 0.8,-0.6 h 0.4 z m -0.5,-0.9 c 0,-0.5 -0.4,-0.9 -0.9,-0.9 -0.5,0 -0.9,0.4 -0.9,0.9 h 1.8 z" /><path
     style="fill:#4d4d4d"
     inkscape:connector-curvature="0"
     id="path96"
     d="m 430.5,156.8 h 0.5 v 4.3 h -0.5 v -4.3 z" /><path
     style="fill:#4d4d4d"
     inkscape:connector-curvature="0"
     id="path98"
     d="m 435.3,159 c -0.1,-0.4 -0.3,-0.6 -0.8,-0.6 -0.7,0 -1,0.6 -1,1.2 0,0.6 0.3,1.1 0.9,1.1 0.5,0 0.8,-0.3 0.9,-0.8 h 0.5 c -0.1,0.8 -0.6,1.2 -1.4,1.2 -0.9,0 -1.5,-0.7 -1.5,-1.6 0,-0.9 0.5,-1.7 1.5,-1.7 0.7,0 1.3,0.3 1.3,1.1 h -0.4 z" /><path
     style="fill:#4d4d4d"
     inkscape:connector-curvature="0"
     id="path100"
     d="m 438.8,161.1 h -0.5 v -0.5 h 0 c -0.2,0.4 -0.6,0.6 -1,0.6 -0.8,0 -1.1,-0.5 -1.1,-1.1 v -2 h 0.5 v 2.1 c 0,0.4 0.2,0.6 0.6,0.6 0.6,0 0.9,-0.4 0.9,-1 V 158 h 0.5 v 3.1 z" /><path
     style="fill:#4d4d4d"
     inkscape:connector-curvature="0"
     id="path102"
     d="m 439.4,158 h 0.5 v 0.7 h 0 c 0.2,-0.5 0.6,-0.7 1.1,-0.7 v 0.5 c -0.8,0 -1.1,0.5 -1.1,1.3 v 1.4 h -0.5 V 158 z" /><path
     style="fill:#4d4d4d"
     inkscape:connector-curvature="0"
     id="path104"
     d="m 441.6,160.1 c 0,0.5 0.4,0.6 0.8,0.6 0.3,0 0.8,-0.1 0.8,-0.5 0,-0.4 -0.5,-0.5 -1,-0.6 -0.5,-0.1 -1,-0.3 -1,-0.9 0,-0.6 0.6,-0.9 1.2,-0.9 0.7,0 1.2,0.2 1.3,1 h -0.5 c 0,-0.4 -0.4,-0.5 -0.7,-0.5 -0.3,0 -0.7,0.1 -0.7,0.4 0,0.4 0.5,0.4 1,0.5 0.5,0.1 1,0.3 1,0.9 0,0.7 -0.7,1 -1.3,1 -0.7,0 -1.3,-0.3 -1.3,-1 h 0.4 z" /><path
     style="fill:#4d4d4d"
     inkscape:connector-curvature="0"
     id="path106"
     d="m 445.5,157.9 c 1,0 1.5,0.7 1.5,1.6 0,0.9 -0.5,1.6 -1.5,1.6 -1,0 -1.5,-0.7 -1.5,-1.6 0,-0.9 0.5,-1.6 1.5,-1.6 z m 0,2.8 c 0.5,0 1,-0.4 1,-1.2 0,-0.8 -0.4,-1.2 -1,-1.2 -0.5,0 -1,0.4 -1,1.2 0,0.8 0.4,1.2 1,1.2 z" /><path
     style="fill:#4d4d4d"
     inkscape:connector-curvature="0"
     id="path108"
     d="m 451.7,161.1 h -0.5 v -0.4 h 0 c -0.2,0.3 -0.6,0.5 -1,0.5 -1,0 -1.4,-0.8 -1.4,-1.6 0,-0.8 0.5,-1.6 1.4,-1.6 0.3,0 0.8,0.1 1,0.5 h 0 v -1.6 h 0.5 v 4.2 z m -1.4,-0.4 c 0.7,0 0.9,-0.6 0.9,-1.2 0,-0.6 -0.3,-1.2 -1,-1.2 -0.7,0 -0.9,0.6 -0.9,1.2 0,0.6 0.3,1.2 1,1.2 z" /><path
     style="fill:#4d4d4d"
     inkscape:connector-curvature="0"
     id="path110"
     d="m 455,160.1 c -0.1,0.7 -0.6,1.1 -1.3,1.1 -1,0 -1.5,-0.7 -1.5,-1.6 0,-0.9 0.6,-1.6 1.5,-1.6 1.1,0 1.4,1 1.4,1.8 h -2.3 c 0,0.5 0.3,1 1,1 0.4,0 0.7,-0.2 0.8,-0.6 h 0.4 z m -0.5,-0.9 c 0,-0.5 -0.4,-0.9 -0.9,-0.9 -0.5,0 -0.9,0.4 -0.9,0.9 h 1.8 z" /><path
     style="fill:#4d4d4d"
     inkscape:connector-curvature="0"
     id="path112"
     d="m 456.9,158 h 0.5 v 0.5 h 0 c 0.2,-0.3 0.6,-0.5 1,-0.5 0.4,0 0.7,0.1 0.9,0.5 0.2,-0.3 0.6,-0.5 1,-0.5 0.6,0 1,0.3 1,0.9 v 2.3 h -0.5 v -2 c 0,-0.4 -0.1,-0.7 -0.6,-0.7 -0.5,0 -0.8,0.3 -0.8,0.8 v 1.9 h -0.5 v -2 c 0,-0.4 -0.1,-0.7 -0.6,-0.7 -0.6,0 -0.8,0.6 -0.8,0.8 v 1.9 H 457 V 158 z" /><path
     style="fill:#4d4d4d"
     inkscape:connector-curvature="0"
     id="path114"
     d="m 464.7,161.1 c -0.1,0.1 -0.2,0.1 -0.4,0.1 -0.3,0 -0.4,-0.1 -0.4,-0.5 -0.3,0.3 -0.7,0.5 -1.1,0.5 -0.6,0 -1,-0.3 -1,-0.9 0,-0.7 0.5,-0.9 1,-1 0.6,-0.1 1,-0.1 1,-0.5 0,-0.4 -0.4,-0.5 -0.7,-0.5 -0.4,0 -0.7,0.1 -0.8,0.6 h -0.5 c 0,-0.8 0.6,-1 1.3,-1 0.6,0 1.2,0.1 1.2,0.9 v 1.6 c 0,0.2 0,0.3 0.2,0.3 0,0 0.1,0 0.2,0 v 0.4 z m -0.9,-1.6 c -0.2,0.1 -0.6,0.1 -0.9,0.2 -0.3,0.1 -0.6,0.2 -0.6,0.6 0,0.3 0.3,0.5 0.6,0.5 0.7,0 0.9,-0.4 0.9,-0.7 v -0.6 z" /><path
     style="fill:#4d4d4d"
     inkscape:connector-curvature="0"
     id="path116"
     d="m 465,158 h 0.5 v 0.5 h 0 c 0.2,-0.4 0.6,-0.6 1,-0.6 0.8,0 1.1,0.5 1.1,1.1 v 2 H 467 v -2 c 0,-0.4 -0.2,-0.6 -0.6,-0.6 -0.6,0 -0.9,0.4 -0.9,1 v 1.8 H 465 V 158 z" /><path
     style="fill:#4d4d4d"
     inkscape:connector-curvature="0"
     id="path118"
     d="m 470.8,160.1 c -0.1,0.7 -0.6,1.1 -1.3,1.1 -1,0 -1.5,-0.7 -1.5,-1.6 0,-0.9 0.6,-1.6 1.5,-1.6 1.1,0 1.4,1 1.4,1.8 h -2.3 c 0,0.5 0.3,1 1,1 0.4,0 0.7,-0.2 0.8,-0.6 h 0.4 z m -0.5,-0.9 c 0,-0.5 -0.4,-0.9 -0.9,-0.9 -0.5,0 -0.9,0.4 -0.9,0.9 h 1.8 z" /><path
     style="fill:#4d4d4d"
     inkscape:connector-curvature="0"
     id="path120"
     d="m 471.8,161.5 c 0,0.6 -0.3,0.8 -0.7,0.8 -0.1,0 -0.2,0 -0.3,0 v -0.4 c 0.1,0 0.1,0 0.2,0 0.2,0 0.3,-0.1 0.3,-0.4 V 158 h 0.5 v 3.5 z m 0,-4.1 h -0.5 v -0.6 h 0.5 v 0.6 z" /><path
     style="fill:#4d4d4d"
     inkscape:connector-curvature="0"
     id="path122"
     d="m 473.8,157.9 c 1,0 1.5,0.7 1.5,1.6 0,0.9 -0.5,1.6 -1.5,1.6 -1,0 -1.5,-0.7 -1.5,-1.6 0,-0.9 0.5,-1.6 1.5,-1.6 z m 0,2.8 c 0.5,0 1,-0.4 1,-1.2 0,-0.8 -0.4,-1.2 -1,-1.2 -0.5,0 -1,0.4 -1,1.2 0,0.8 0.4,1.2 1,1.2 z" /><path
     style="fill:#4d4d4d"
     inkscape:connector-curvature="0"
     id="path124"
     d="m 480,161.1 h -0.5 v -0.4 h 0 c -0.2,0.3 -0.6,0.5 -1,0.5 -1,0 -1.4,-0.8 -1.4,-1.6 0,-0.8 0.5,-1.6 1.4,-1.6 0.3,0 0.8,0.1 1,0.5 h 0 v -1.6 h 0.5 v 4.2 z m -1.4,-0.4 c 0.7,0 0.9,-0.6 0.9,-1.2 0,-0.6 -0.3,-1.2 -1,-1.2 -0.7,0 -0.9,0.6 -0.9,1.2 0,0.6 0.3,1.2 1,1.2 z" /><path
     style="fill:#4d4d4d"
     inkscape:connector-curvature="0"
     id="path126"
     d="m 483.3,160.1 c -0.1,0.7 -0.6,1.1 -1.3,1.1 -1,0 -1.5,-0.7 -1.5,-1.6 0,-0.9 0.6,-1.6 1.5,-1.6 1.1,0 1.4,1 1.4,1.8 H 481 c 0,0.5 0.3,1 1,1 0.4,0 0.7,-0.2 0.8,-0.6 h 0.5 z m -0.5,-0.9 c 0,-0.5 -0.4,-0.9 -0.9,-0.9 -0.5,0 -0.9,0.4 -0.9,0.9 h 1.8 z" /><path
     style="fill:#4d4d4d"
     inkscape:connector-curvature="0"
     id="path128"
     d="m 483.9,158.4 h -0.5 V 158 h 0.5 v -0.5 c 0,-0.5 0.3,-0.8 0.9,-0.8 0.1,0 0.2,0 0.3,0 v 0.4 c -0.1,0 -0.2,0 -0.3,0 -0.2,0 -0.4,0.1 -0.4,0.3 v 0.4 h 0.6 v 0.4 h -0.6 v 2.7 h -0.5 v -2.5 z" /><path
     style="fill:#4d4d4d"
     inkscape:connector-curvature="0"
     id="path130"
     d="m 488,160.1 c -0.1,0.7 -0.6,1.1 -1.3,1.1 -1,0 -1.5,-0.7 -1.5,-1.6 0,-0.9 0.6,-1.6 1.5,-1.6 1.1,0 1.4,1 1.4,1.8 h -2.3 c 0,0.5 0.3,1 1,1 0.4,0 0.7,-0.2 0.8,-0.6 h 0.4 z m -0.5,-0.9 c 0,-0.5 -0.4,-0.9 -0.9,-0.9 -0.5,0 -0.9,0.4 -0.9,0.9 h 1.8 z" /><path
     style="fill:#4d4d4d"
     inkscape:connector-curvature="0"
     id="path132"
     d="m 488.4,158 h 0.5 v 0.5 h 0 c 0.2,-0.4 0.6,-0.6 1,-0.6 0.8,0 1.1,0.5 1.1,1.1 v 2 h -0.5 v -2 c 0,-0.4 -0.2,-0.6 -0.6,-0.6 -0.6,0 -0.9,0.4 -0.9,1 v 1.8 h -0.5 V 158 z" /><path
     style="fill:#4d4d4d"
     inkscape:connector-curvature="0"
     id="path134"
     d="m 491.9,160.1 c 0,0.5 0.4,0.6 0.8,0.6 0.3,0 0.8,-0.1 0.8,-0.5 0,-0.4 -0.5,-0.5 -1,-0.6 -0.5,-0.1 -1,-0.3 -1,-0.9 0,-0.6 0.6,-0.9 1.2,-0.9 0.7,0 1.2,0.2 1.3,1 h -0.5 c 0,-0.4 -0.4,-0.5 -0.7,-0.5 -0.3,0 -0.7,0.1 -0.7,0.4 0,0.4 0.5,0.4 1,0.5 0.5,0.1 1,0.3 1,0.9 0,0.7 -0.7,1 -1.3,1 -0.7,0 -1.3,-0.3 -1.3,-1 h 0.4 z" /><path
     style="fill:#4d4d4d"
     inkscape:connector-curvature="0"
     id="path136"
     d="m 495,157.4 h -0.5 v -0.6 h 0.5 v 0.6 z m -0.5,0.6 h 0.5 v 3.1 h -0.5 V 158 z" /><path
     style="fill:#4d4d4d"
     inkscape:connector-curvature="0"
     id="path138"
     d="m 497,161.1 h -0.5 l -1.2,-3.1 h 0.6 l 0.9,2.6 h 0 l 0.8,-2.6 h 0.5 l -1.1,3.1 z" /><path
     style="fill:#4d4d4d"
     inkscape:connector-curvature="0"
     id="path140"
     d="m 499.8,157.9 c 1,0 1.5,0.7 1.5,1.6 0,0.9 -0.5,1.6 -1.5,1.6 -1,0 -1.5,-0.7 -1.5,-1.6 0,-0.9 0.5,-1.6 1.5,-1.6 z m 0,2.8 c 0.5,0 1,-0.4 1,-1.2 0,-0.8 -0.4,-1.2 -1,-1.2 -0.6,0 -1,0.4 -1,1.2 0.1,0.8 0.5,1.2 1,1.2 z" /><path
     style="fill:#4d4d4d"
     inkscape:connector-curvature="0"
     id="path142"
     d="m 501.9,160.4 h 0.7 v 0.7 h -0.7 v -0.7 z" /><path
     style="fill:#4d4d4d"
     inkscape:connector-curvature="0"
     id="path144"
     d="m 302.4,164 h 3 v 0.5 H 303 v 1.4 h 2.2 v 0.5 H 303 v 1.5 h 2.4 v 0.5 h -3 V 164 z" /><path
     style="fill:#4d4d4d"
     inkscape:connector-curvature="0"
     id="path146"
     d="m 305.9,164 h 0.5 v 4.3 h -0.5 V 164 z" /><path
     style="fill:#4d4d4d"
     inkscape:connector-curvature="0"
     id="path148"
     d="m 308.6,165.2 h 0.5 v 0.4 h 0 c 0.2,-0.3 0.6,-0.5 1,-0.5 1,0 1.4,0.8 1.4,1.6 0,0.9 -0.5,1.6 -1.4,1.6 -0.3,0 -0.8,-0.1 -1,-0.5 h 0 v 1.6 h -0.5 v -4.2 z m 1.4,0.3 c -0.7,0 -0.9,0.6 -0.9,1.2 0,0.6 0.3,1.2 1,1.2 0.7,0 0.9,-0.6 0.9,-1.2 0,-0.6 -0.3,-1.2 -1,-1.2 z" /><path
     style="fill:#4d4d4d"
     inkscape:connector-curvature="0"
     id="path150"
     d="m 311.9,165.2 h 0.5 v 0.7 h 0 c 0.2,-0.5 0.6,-0.7 1.1,-0.7 v 0.5 c -0.8,0 -1.1,0.5 -1.1,1.3 v 1.4 h -0.5 v -3.2 z" /><path
     style="fill:#4d4d4d"
     inkscape:connector-curvature="0"
     id="path152"
     d="m 316.3,167.3 c -0.1,0.7 -0.6,1.1 -1.3,1.1 -1,0 -1.5,-0.7 -1.5,-1.6 0,-0.9 0.6,-1.6 1.5,-1.6 1.1,0 1.4,1 1.4,1.8 h -2.3 c 0,0.5 0.3,1 1,1 0.4,0 0.7,-0.2 0.8,-0.6 h 0.4 z m -0.5,-0.9 c 0,-0.5 -0.4,-0.9 -0.9,-0.9 -0.5,0 -0.9,0.4 -0.9,0.9 h 1.8 z" /><path
     style="fill:#4d4d4d"
     inkscape:connector-curvature="0"
     id="path154"
     d="m 317.1,167.3 c 0,0.5 0.4,0.6 0.8,0.6 0.3,0 0.8,-0.1 0.8,-0.5 0,-0.4 -0.5,-0.5 -1,-0.6 -0.5,-0.1 -1,-0.3 -1,-0.9 0,-0.6 0.6,-0.9 1.2,-0.9 0.7,0 1.2,0.2 1.3,1 h -0.5 c 0,-0.4 -0.4,-0.5 -0.7,-0.5 -0.3,0 -0.7,0.1 -0.7,0.4 0,0.4 0.5,0.4 1,0.5 0.5,0.1 1,0.3 1,0.9 0,0.7 -0.7,1 -1.3,1 -0.7,0 -1.3,-0.3 -1.3,-1 h 0.4 z" /><path
     style="fill:#4d4d4d"
     inkscape:connector-curvature="0"
     id="path156"
     d="m 322.3,167.3 c -0.1,0.7 -0.6,1.1 -1.3,1.1 -1,0 -1.5,-0.7 -1.5,-1.6 0,-0.9 0.6,-1.6 1.5,-1.6 1.1,0 1.4,1 1.4,1.8 H 320 c 0,0.5 0.3,1 1,1 0.4,0 0.7,-0.2 0.8,-0.6 h 0.5 z m -0.5,-0.9 c 0,-0.5 -0.4,-0.9 -0.9,-0.9 -0.5,0 -0.9,0.4 -0.9,0.9 h 1.8 z" /><path
     style="fill:#4d4d4d"
     inkscape:connector-curvature="0"
     id="path158"
     d="m 322.7,165.2 h 0.5 v 0.5 h 0 c 0.2,-0.4 0.6,-0.6 1,-0.6 0.8,0 1.1,0.5 1.1,1.1 v 2 h -0.5 v -2.1 c 0,-0.4 -0.2,-0.6 -0.6,-0.6 -0.6,0 -0.9,0.4 -0.9,1 v 1.8 h -0.5 v -3.1 z" /><path
     style="fill:#4d4d4d"
     inkscape:connector-curvature="0"
     id="path160"
     d="m 326.6,165.2 h 0.6 v 0.4 h -0.6 v 1.9 c 0,0.2 0.1,0.3 0.4,0.3 h 0.2 v 0.4 h -0.4 c -0.5,0 -0.7,-0.1 -0.7,-0.7 v -2 h -0.5 v -0.4 h 0.5 v -0.9 h 0.5 v 1 z" /><path
     style="fill:#4d4d4d"
     inkscape:connector-curvature="0"
     id="path162"
     d="m 330.3,167.3 c -0.1,0.7 -0.6,1.1 -1.3,1.1 -1,0 -1.5,-0.7 -1.5,-1.6 0,-0.9 0.6,-1.6 1.5,-1.6 1.1,0 1.4,1 1.4,1.8 H 328 c 0,0.5 0.3,1 1,1 0.4,0 0.7,-0.2 0.8,-0.6 h 0.5 z m -0.5,-0.9 c 0,-0.5 -0.4,-0.9 -0.9,-0.9 -0.5,0 -0.9,0.4 -0.9,0.9 h 1.8 z" /><path
     style="fill:#4d4d4d"
     inkscape:connector-curvature="0"
     id="path164"
     d="m 334.3,166.2 c -0.1,-0.4 -0.3,-0.6 -0.8,-0.6 -0.7,0 -1,0.6 -1,1.2 0,0.6 0.3,1.1 0.9,1.1 0.5,0 0.8,-0.3 0.9,-0.8 h 0.5 c -0.1,0.8 -0.6,1.2 -1.4,1.2 -0.9,0 -1.5,-0.7 -1.5,-1.6 0,-0.9 0.5,-1.7 1.5,-1.7 0.7,0 1.3,0.3 1.3,1.1 h -0.4 z" /><path
     style="fill:#4d4d4d"
     inkscape:connector-curvature="0"
     id="path166"
     d="m 337.9,167.3 c -0.1,0.7 -0.6,1.1 -1.3,1.1 -1,0 -1.5,-0.7 -1.5,-1.6 0,-0.9 0.6,-1.6 1.5,-1.6 1.1,0 1.4,1 1.4,1.8 h -2.3 c 0,0.5 0.3,1 1,1 0.4,0 0.7,-0.2 0.8,-0.6 h 0.4 z m -0.5,-0.9 c 0,-0.5 -0.4,-0.9 -0.9,-0.9 -0.5,0 -0.9,0.4 -0.9,0.9 h 1.8 z" /><path
     style="fill:#4d4d4d"
     inkscape:connector-curvature="0"
     id="path168"
     d="m 338.3,165.2 h 0.5 v 0.7 h 0 c 0.2,-0.5 0.6,-0.7 1.1,-0.7 v 0.5 c -0.8,0 -1.1,0.5 -1.1,1.3 v 1.4 h -0.5 v -3.2 z" /><path
     style="fill:#4d4d4d"
     inkscape:connector-curvature="0"
     id="path170"
     d="m 340.9,165.2 h 0.6 v 0.4 h -0.6 v 1.9 c 0,0.2 0.1,0.3 0.4,0.3 h 0.2 v 0.4 h -0.4 c -0.5,0 -0.7,-0.1 -0.7,-0.7 v -2 h -0.5 v -0.4 h 0.5 v -0.9 h 0.5 v 1 z" /><path
     style="fill:#4d4d4d"
     inkscape:connector-curvature="0"
     id="path172"
     d="M 342.5,164.6 H 342 V 164 h 0.5 v 0.6 z m -0.5,0.6 h 0.5 v 3.1 H 342 v -3.1 z" /><path
     style="fill:#4d4d4d"
     inkscape:connector-curvature="0"
     id="path174"
     d="m 343.3,165.6 h -0.5 v -0.4 h 0.5 v -0.5 c 0,-0.5 0.3,-0.8 0.9,-0.8 0.1,0 0.2,0 0.3,0 v 0.4 c -0.1,0 -0.2,0 -0.3,0 -0.2,0 -0.4,0.1 -0.4,0.3 v 0.4 h 0.6 v 0.4 h -0.6 v 2.7 h -0.5 v -2.5 z m 1.6,-1 V 164 h 0.5 v 0.6 h -0.5 z m 0,3.7 v -3.1 h 0.5 v 3.1 h -0.5 z" /><path
     style="fill:#4d4d4d"
     inkscape:connector-curvature="0"
     id="path176"
     d="m 348.2,166.2 c -0.1,-0.4 -0.3,-0.6 -0.8,-0.6 -0.7,0 -1,0.6 -1,1.2 0,0.6 0.3,1.1 0.9,1.1 0.5,0 0.8,-0.3 0.9,-0.8 h 0.5 c -0.1,0.8 -0.6,1.2 -1.4,1.2 -0.9,0 -1.5,-0.7 -1.5,-1.6 0,-0.9 0.5,-1.7 1.5,-1.7 0.7,0 1.3,0.3 1.3,1.1 h -0.4 z" /><path
     style="fill:#4d4d4d"
     inkscape:connector-curvature="0"
     id="path178"
     d="m 351.9,168.3 c -0.1,0.1 -0.2,0.1 -0.4,0.1 -0.3,0 -0.4,-0.1 -0.4,-0.5 -0.3,0.3 -0.7,0.5 -1.1,0.5 -0.6,0 -1,-0.3 -1,-0.9 0,-0.7 0.5,-0.9 1,-1 0.6,-0.1 1,-0.1 1,-0.5 0,-0.4 -0.4,-0.5 -0.7,-0.5 -0.4,0 -0.7,0.1 -0.8,0.6 H 349 c 0,-0.8 0.6,-1 1.3,-1 0.6,0 1.2,0.1 1.2,0.9 v 1.6 c 0,0.2 0,0.3 0.2,0.3 0,0 0.1,0 0.2,0 v 0.4 z m -0.8,-1.6 c -0.2,0.1 -0.6,0.1 -0.9,0.2 -0.3,0.1 -0.6,0.2 -0.6,0.6 0,0.3 0.3,0.5 0.6,0.5 0.7,0 0.9,-0.4 0.9,-0.7 v -0.6 z" /><path
     style="fill:#4d4d4d"
     inkscape:connector-curvature="0"
     id="path180"
     d="m 355,168.3 h -0.5 v -0.4 h 0 c -0.2,0.3 -0.6,0.5 -1,0.5 -1,0 -1.4,-0.8 -1.4,-1.6 0,-0.9 0.5,-1.6 1.4,-1.6 0.3,0 0.8,0.1 1,0.5 h 0 V 164 h 0.5 v 4.3 z m -1.5,-0.4 c 0.7,0 0.9,-0.6 0.9,-1.2 0,-0.6 -0.3,-1.2 -1,-1.2 -0.7,0 -0.9,0.6 -0.9,1.2 0.1,0.6 0.4,1.2 1,1.2 z" /><path
     style="fill:#4d4d4d"
     inkscape:connector-curvature="0"
     id="path182"
     d="m 357,165.1 c 1,0 1.5,0.7 1.5,1.6 0,0.9 -0.5,1.6 -1.5,1.6 -1,0 -1.5,-0.7 -1.5,-1.6 0,-0.9 0.5,-1.6 1.5,-1.6 z m 0,2.8 c 0.5,0 1,-0.4 1,-1.2 0,-0.8 -0.4,-1.2 -1,-1.2 -0.5,0 -1,0.4 -1,1.2 0,0.8 0.4,1.2 1,1.2 z" /><path
     style="fill:#4d4d4d"
     inkscape:connector-curvature="0"
     id="path184"
     d="m 363.1,167.3 c -0.1,0.7 -0.6,1.1 -1.3,1.1 -1,0 -1.5,-0.7 -1.5,-1.6 0,-0.9 0.6,-1.6 1.5,-1.6 1.1,0 1.4,1 1.4,1.8 h -2.3 c 0,0.5 0.3,1 1,1 0.4,0 0.7,-0.2 0.8,-0.6 h 0.4 z m -0.5,-0.9 c 0,-0.5 -0.4,-0.9 -0.9,-0.9 -0.5,0 -0.9,0.4 -0.9,0.9 h 1.8 z" /><path
     style="fill:#4d4d4d"
     inkscape:connector-curvature="0"
     id="path186"
     d="m 363.8,167.3 c 0,0.5 0.4,0.6 0.8,0.6 0.3,0 0.8,-0.1 0.8,-0.5 0,-0.4 -0.5,-0.5 -1,-0.6 -0.5,-0.1 -1,-0.3 -1,-0.9 0,-0.6 0.6,-0.9 1.2,-0.9 0.7,0 1.2,0.2 1.3,1 h -0.5 c 0,-0.4 -0.4,-0.5 -0.7,-0.5 -0.3,0 -0.7,0.1 -0.7,0.4 0,0.4 0.5,0.4 1,0.5 0.5,0.1 1,0.3 1,0.9 0,0.7 -0.7,1 -1.3,1 -0.7,0 -1.3,-0.3 -1.3,-1 h 0.4 z" /><path
     style="fill:#4d4d4d"
     inkscape:connector-curvature="0"
     id="path188"
     d="m 367.9,165.2 h 0.5 v 0.4 h 0 c 0.2,-0.3 0.6,-0.5 1,-0.5 1,0 1.4,0.8 1.4,1.6 0,0.9 -0.5,1.6 -1.4,1.6 -0.3,0 -0.8,-0.1 -1,-0.5 h 0 v 1.6 h -0.5 v -4.2 z m 1.4,0.3 c -0.7,0 -0.9,0.6 -0.9,1.2 0,0.6 0.3,1.2 1,1.2 0.7,0 0.9,-0.6 0.9,-1.2 0,-0.6 -0.3,-1.2 -1,-1.2 z" /><path
     style="fill:#4d4d4d"
     inkscape:connector-curvature="0"
     id="path190"
     d="m 373.9,167.3 c -0.1,0.7 -0.6,1.1 -1.3,1.1 -1,0 -1.5,-0.7 -1.5,-1.6 0,-0.9 0.6,-1.6 1.5,-1.6 1.1,0 1.4,1 1.4,1.8 h -2.3 c 0,0.5 0.3,1 1,1 0.4,0 0.7,-0.2 0.8,-0.6 h 0.4 z m -0.5,-0.9 c 0,-0.5 -0.4,-0.9 -0.9,-0.9 -0.5,0 -0.9,0.4 -0.9,0.9 h 1.8 z" /><path
     style="fill:#4d4d4d"
     inkscape:connector-curvature="0"
     id="path192"
     d="m 374.3,165.2 h 0.5 v 0.7 h 0 c 0.2,-0.5 0.6,-0.7 1.1,-0.7 v 0.5 c -0.8,0 -1.1,0.5 -1.1,1.3 v 1.4 h -0.5 v -3.2 z" /><path
     style="fill:#4d4d4d"
     inkscape:connector-curvature="0"
     id="path194"
     d="m 376.5,167.3 c 0,0.5 0.4,0.6 0.8,0.6 0.3,0 0.7,-0.1 0.7,-0.5 0,-0.4 -0.5,-0.5 -1,-0.6 -0.5,-0.1 -1,-0.3 -1,-0.9 0,-0.6 0.6,-0.9 1.2,-0.9 0.7,0 1.2,0.2 1.3,1 H 378 c 0,-0.4 -0.4,-0.5 -0.7,-0.5 -0.3,0 -0.7,0.1 -0.7,0.4 0,0.4 0.5,0.4 1,0.5 0.5,0.1 1,0.3 1,0.9 0,0.7 -0.7,1 -1.3,1 -0.7,0 -1.3,-0.3 -1.3,-1 h 0.5 z" /><path
     style="fill:#4d4d4d"
     inkscape:connector-curvature="0"
     id="path196"
     d="m 380.4,165.1 c 1,0 1.5,0.7 1.5,1.6 0,0.9 -0.5,1.6 -1.5,1.6 -1,0 -1.5,-0.7 -1.5,-1.6 0,-0.9 0.5,-1.6 1.5,-1.6 z m 0,2.8 c 0.5,0 1,-0.4 1,-1.2 0,-0.8 -0.4,-1.2 -1,-1.2 -0.5,0 -1,0.4 -1,1.2 0,0.8 0.5,1.2 1,1.2 z" /><path
     style="fill:#4d4d4d"
     inkscape:connector-curvature="0"
     id="path198"
     d="m 382.3,165.2 h 0.5 v 0.5 h 0 c 0.2,-0.4 0.6,-0.6 1,-0.6 0.8,0 1.1,0.5 1.1,1.1 v 2 h -0.5 v -2.1 c 0,-0.4 -0.2,-0.6 -0.6,-0.6 -0.6,0 -0.9,0.4 -0.9,1 v 1.8 h -0.5 v -3.1 z" /><path
     style="fill:#4d4d4d"
     inkscape:connector-curvature="0"
     id="path200"
     d="m 388.3,168.3 c -0.1,0.1 -0.2,0.1 -0.4,0.1 -0.3,0 -0.4,-0.1 -0.4,-0.5 -0.3,0.3 -0.7,0.5 -1.1,0.5 -0.6,0 -1,-0.3 -1,-0.9 0,-0.7 0.5,-0.9 1,-1 0.6,-0.1 1,-0.1 1,-0.5 0,-0.4 -0.4,-0.5 -0.7,-0.5 -0.4,0 -0.8,0.1 -0.8,0.6 h -0.5 c 0,-0.8 0.6,-1 1.3,-1 0.6,0 1.2,0.1 1.2,0.9 v 1.6 c 0,0.2 0,0.3 0.2,0.3 0,0 0.1,0 0.2,0 v 0.4 z m -0.9,-1.6 c -0.2,0.1 -0.6,0.1 -0.9,0.2 -0.3,0.1 -0.6,0.2 -0.6,0.6 0,0.3 0.3,0.5 0.6,0.5 0.7,0 0.9,-0.4 0.9,-0.7 v -0.6 z" /><path
     style="fill:#4d4d4d"
     inkscape:connector-curvature="0"
     id="path202"
     d="m 388.6,164 h 0.5 v 4.3 h -0.5 V 164 z" /><path
     style="fill:#4d4d4d"
     inkscape:connector-curvature="0"
     id="path204"
     d="m 393.9,167.3 c -0.1,0.7 -0.6,1.1 -1.3,1.1 -1,0 -1.5,-0.7 -1.5,-1.6 0,-0.9 0.6,-1.6 1.5,-1.6 1.1,0 1.4,1 1.4,1.8 h -2.3 c 0,0.5 0.3,1 1,1 0.4,0 0.7,-0.2 0.8,-0.6 h 0.4 z m -0.4,-0.9 c 0,-0.5 -0.4,-0.9 -0.9,-0.9 -0.5,0 -0.9,0.4 -0.9,0.9 h 1.8 z" /><path
     style="fill:#4d4d4d"
     inkscape:connector-curvature="0"
     id="path206"
     d="m 396.4,164.6 h -0.5 V 164 h 0.5 v 0.6 z m -0.5,0.6 h 0.5 v 3.1 h -0.5 v -3.1 z" /><path
     style="fill:#4d4d4d"
     inkscape:connector-curvature="0"
     id="path208"
     d="m 397.1,165.2 h 0.5 v 0.5 h 0 c 0.2,-0.4 0.6,-0.6 1,-0.6 0.8,0 1.1,0.5 1.1,1.1 v 2 h -0.5 v -2.1 c 0,-0.4 -0.2,-0.6 -0.6,-0.6 -0.6,0 -0.9,0.4 -0.9,1 v 1.8 h -0.5 v -3.1 z" /><path
     style="fill:#4d4d4d"
     inkscape:connector-curvature="0"
     id="path210"
     d="m 401,165.2 h 0.6 v 0.4 H 401 v 1.9 c 0,0.2 0.1,0.3 0.4,0.3 h 0.2 v 0.4 h -0.4 c -0.5,0 -0.7,-0.1 -0.7,-0.7 v -2 H 400 v -0.4 h 0.5 v -0.9 h 0.5 v 1 z" /><path
     style="fill:#4d4d4d"
     inkscape:connector-curvature="0"
     id="path212"
     d="m 402,165.2 h 0.5 v 0.7 h 0 c 0.2,-0.5 0.6,-0.7 1.1,-0.7 v 0.5 c -0.8,0 -1.1,0.5 -1.1,1.3 v 1.4 H 402 v -3.2 z" /><path
     style="fill:#4d4d4d"
     inkscape:connector-curvature="0"
     id="path214"
     d="m 406.6,168.3 c -0.1,0.1 -0.2,0.1 -0.4,0.1 -0.3,0 -0.4,-0.1 -0.4,-0.5 -0.3,0.3 -0.7,0.5 -1.1,0.5 -0.6,0 -1,-0.3 -1,-0.9 0,-0.7 0.5,-0.9 1,-1 0.6,-0.1 1,-0.1 1,-0.5 0,-0.4 -0.4,-0.5 -0.7,-0.5 -0.4,0 -0.7,0.1 -0.8,0.6 h -0.5 c 0,-0.8 0.6,-1 1.3,-1 0.6,0 1.2,0.1 1.2,0.9 v 1.6 c 0,0.2 0,0.3 0.2,0.3 0,0 0.1,0 0.2,0 v 0.4 z m -0.8,-1.6 c -0.2,0.1 -0.6,0.1 -0.9,0.2 -0.3,0.1 -0.6,0.2 -0.6,0.6 0,0.3 0.3,0.5 0.6,0.5 0.7,0 0.9,-0.4 0.9,-0.7 v -0.6 z" /><path
     style="fill:#4d4d4d"
     inkscape:connector-curvature="0"
     id="path216"
     d="m 406.9,165.2 h 0.5 v 0.5 h 0 c 0.2,-0.4 0.6,-0.6 1,-0.6 0.8,0 1.1,0.5 1.1,1.1 v 2 H 409 v -2.1 c 0,-0.4 -0.2,-0.6 -0.6,-0.6 -0.6,0 -0.9,0.4 -0.9,1 v 1.8 H 407 v -3.1 z" /><path
     style="fill:#4d4d4d"
     inkscape:connector-curvature="0"
     id="path218"
     d="m 410.4,167.3 c 0,0.5 0.4,0.6 0.8,0.6 0.3,0 0.7,-0.1 0.7,-0.5 0,-0.4 -0.5,-0.5 -1,-0.6 -0.5,-0.1 -1,-0.3 -1,-0.9 0,-0.6 0.6,-0.9 1.2,-0.9 0.7,0 1.2,0.2 1.3,1 h -0.5 c 0,-0.4 -0.4,-0.5 -0.7,-0.5 -0.3,0 -0.7,0.1 -0.7,0.4 0,0.4 0.5,0.4 1,0.5 0.5,0.1 1,0.3 1,0.9 0,0.7 -0.7,1 -1.3,1 -0.7,0 -1.3,-0.3 -1.3,-1 h 0.5 z" /><path
     style="fill:#4d4d4d"
     inkscape:connector-curvature="0"
     id="path220"
     d="m 413.2,165.6 h -0.5 v -0.4 h 0.5 v -0.5 c 0,-0.5 0.3,-0.8 0.9,-0.8 0.1,0 0.2,0 0.3,0 v 0.4 c -0.1,0 -0.2,0 -0.3,0 -0.2,0 -0.4,0.1 -0.4,0.3 v 0.4 h 0.6 v 0.4 h -0.6 v 2.7 h -0.5 v -2.5 z" /><path
     style="fill:#4d4d4d"
     inkscape:connector-curvature="0"
     id="path222"
     d="m 417.2,167.3 c -0.1,0.7 -0.6,1.1 -1.3,1.1 -1,0 -1.5,-0.7 -1.5,-1.6 0,-0.9 0.6,-1.6 1.5,-1.6 1.1,0 1.4,1 1.4,1.8 H 415 c 0,0.5 0.3,1 1,1 0.4,0 0.7,-0.2 0.8,-0.6 h 0.4 z m -0.5,-0.9 c 0,-0.5 -0.4,-0.9 -0.9,-0.9 -0.5,0 -0.9,0.4 -0.9,0.9 h 1.8 z" /><path
     style="fill:#4d4d4d"
     inkscape:connector-curvature="0"
     id="path224"
     d="m 417.6,165.2 h 0.5 v 0.7 h 0 c 0.2,-0.5 0.6,-0.7 1.1,-0.7 v 0.5 c -0.8,0 -1.1,0.5 -1.1,1.3 v 1.4 h -0.5 v -3.2 z" /><path
     style="fill:#4d4d4d"
     inkscape:connector-curvature="0"
     id="path226"
     d="m 420,164.6 h -0.5 V 164 h 0.5 v 0.6 z m -0.5,0.6 h 0.5 v 3.1 h -0.5 v -3.1 z" /><path
     style="fill:#4d4d4d"
     inkscape:connector-curvature="0"
     id="path228"
     d="m 420.7,164 h 0.5 v 1.6 h 0 c 0.2,-0.3 0.6,-0.5 1,-0.5 1,0 1.4,0.8 1.4,1.6 0,0.9 -0.5,1.6 -1.4,1.6 -0.3,0 -0.8,-0.1 -1,-0.5 h 0 v 0.4 h -0.5 V 164 z m 1.4,1.5 c -0.7,0 -0.9,0.6 -0.9,1.2 0,0.6 0.3,1.2 1,1.2 0.7,0 0.9,-0.6 0.9,-1.2 0,-0.6 -0.3,-1.2 -1,-1.2 z" /><path
     style="fill:#4d4d4d"
     inkscape:connector-curvature="0"
     id="path230"
     d="m 424.1,164 h 0.5 v 4.3 h -0.5 V 164 z" /><path
     style="fill:#4d4d4d"
     inkscape:connector-curvature="0"
     id="path232"
     d="m 427.9,167.3 c -0.1,0.7 -0.6,1.1 -1.3,1.1 -1,0 -1.5,-0.7 -1.5,-1.6 0,-0.9 0.6,-1.6 1.5,-1.6 1.1,0 1.4,1 1.4,1.8 h -2.3 c 0,0.5 0.3,1 1,1 0.4,0 0.7,-0.2 0.8,-0.6 h 0.4 z m -0.5,-0.9 c 0,-0.5 -0.4,-0.9 -0.9,-0.9 -0.5,0 -0.9,0.4 -0.9,0.9 h 1.8 z" /><path
     style="fill:#4d4d4d"
     inkscape:connector-curvature="0"
     id="path234"
     d="m 428.5,167.6 h 0.7 v 0.6 c 0,0.4 -0.2,0.8 -0.7,0.9 v -0.3 c 0.3,-0.1 0.4,-0.4 0.3,-0.6 h -0.4 v -0.6 z" /><path
     style="fill:#4d4d4d"
     inkscape:connector-curvature="0"
     id="path236"
     d="m 431.4,165.2 h 0.5 v 0.5 h 0 c 0.2,-0.4 0.6,-0.6 1,-0.6 0.8,0 1.1,0.5 1.1,1.1 v 2 h -0.5 v -2.1 c 0,-0.4 -0.2,-0.6 -0.6,-0.6 -0.6,0 -0.9,0.4 -0.9,1 v 1.8 h -0.5 v -3.1 z" /><path
     style="fill:#4d4d4d"
     inkscape:connector-curvature="0"
     id="path238"
     d="m 435.9,165.1 c 1,0 1.5,0.7 1.5,1.6 0,0.9 -0.5,1.6 -1.5,1.6 -1,0 -1.5,-0.7 -1.5,-1.6 0,-0.9 0.5,-1.6 1.5,-1.6 z m 0,2.8 c 0.5,0 1,-0.4 1,-1.2 0,-0.8 -0.4,-1.2 -1,-1.2 -0.5,0 -1,0.4 -1,1.2 0,0.8 0.5,1.2 1,1.2 z" /><path
     style="fill:#4d4d4d"
     inkscape:connector-curvature="0"
     id="path240"
     d="m 439.4,165.2 h 0.5 v 0.7 h 0 c 0.2,-0.5 0.6,-0.7 1.1,-0.7 v 0.5 c -0.8,0 -1.1,0.5 -1.1,1.3 v 1.4 h -0.5 v -3.2 z" /><path
     style="fill:#4d4d4d"
     inkscape:connector-curvature="0"
     id="path242"
     d="m 443.8,167.3 c -0.1,0.7 -0.6,1.1 -1.3,1.1 -1,0 -1.5,-0.7 -1.5,-1.6 0,-0.9 0.6,-1.6 1.5,-1.6 1.1,0 1.4,1 1.4,1.8 h -2.3 c 0,0.5 0.3,1 1,1 0.4,0 0.7,-0.2 0.8,-0.6 h 0.4 z m -0.5,-0.9 c 0,-0.5 -0.4,-0.9 -0.9,-0.9 -0.5,0 -0.9,0.4 -0.9,0.9 h 1.8 z" /><path
     style="fill:#4d4d4d"
     inkscape:connector-curvature="0"
     id="path244"
     d="m 444.2,165.2 h 0.5 v 0.4 h 0 c 0.2,-0.3 0.6,-0.5 1,-0.5 1,0 1.4,0.8 1.4,1.6 0,0.9 -0.5,1.6 -1.4,1.6 -0.3,0 -0.8,-0.1 -1,-0.5 h 0 v 1.6 h -0.5 v -4.2 z m 1.4,0.3 c -0.7,0 -0.9,0.6 -0.9,1.2 0,0.6 0.3,1.2 1,1.2 0.7,0 0.9,-0.6 0.9,-1.2 0,-0.6 -0.3,-1.2 -1,-1.2 z" /><path
     style="fill:#4d4d4d"
     inkscape:connector-curvature="0"
     id="path246"
     d="m 447.6,165.2 h 0.5 v 0.7 h 0 c 0.2,-0.5 0.6,-0.7 1.1,-0.7 v 0.5 c -0.8,0 -1.1,0.5 -1.1,1.3 v 1.4 h -0.5 v -3.2 z" /><path
     style="fill:#4d4d4d"
     inkscape:connector-curvature="0"
     id="path248"
     d="m 452,167.3 c -0.1,0.7 -0.6,1.1 -1.3,1.1 -1,0 -1.5,-0.7 -1.5,-1.6 0,-0.9 0.6,-1.6 1.5,-1.6 1.1,0 1.4,1 1.4,1.8 h -2.3 c 0,0.5 0.3,1 1,1 0.4,0 0.7,-0.2 0.8,-0.6 h 0.4 z m -0.5,-0.9 c 0,-0.5 -0.4,-0.9 -0.9,-0.9 -0.5,0 -0.9,0.4 -0.9,0.9 h 1.8 z" /><path
     style="fill:#4d4d4d"
     inkscape:connector-curvature="0"
     id="path250"
     d="m 452.7,167.3 c 0,0.5 0.4,0.6 0.8,0.6 0.3,0 0.7,-0.1 0.7,-0.5 0,-0.4 -0.5,-0.5 -1,-0.6 -0.5,-0.1 -1,-0.3 -1,-0.9 0,-0.6 0.6,-0.9 1.2,-0.9 0.7,0 1.2,0.2 1.3,1 h -0.5 c 0,-0.4 -0.4,-0.5 -0.7,-0.5 -0.3,0 -0.7,0.1 -0.7,0.4 0,0.4 0.5,0.4 1,0.5 0.5,0.1 1,0.3 1,0.9 0,0.7 -0.7,1 -1.3,1 -0.7,0 -1.3,-0.3 -1.3,-1 h 0.5 z" /><path
     style="fill:#4d4d4d"
     inkscape:connector-curvature="0"
     id="path252"
     d="m 457.9,167.3 c -0.1,0.7 -0.6,1.1 -1.3,1.1 -1,0 -1.5,-0.7 -1.5,-1.6 0,-0.9 0.6,-1.6 1.5,-1.6 1.1,0 1.4,1 1.4,1.8 h -2.3 c 0,0.5 0.3,1 1,1 0.4,0 0.7,-0.2 0.8,-0.6 h 0.4 z m -0.5,-0.9 c 0,-0.5 -0.4,-0.9 -0.9,-0.9 -0.5,0 -0.9,0.4 -0.9,0.9 h 1.8 z" /><path
     style="fill:#4d4d4d"
     inkscape:connector-curvature="0"
     id="path254"
     d="m 458.3,165.2 h 0.5 v 0.5 h 0 c 0.2,-0.4 0.6,-0.6 1,-0.6 0.8,0 1.1,0.5 1.1,1.1 v 2 h -0.5 v -2.1 c 0,-0.4 -0.2,-0.6 -0.6,-0.6 -0.6,0 -0.9,0.4 -0.9,1 v 1.8 h -0.5 v -3.1 z" /><path
     style="fill:#4d4d4d"
     inkscape:connector-curvature="0"
     id="path256"
     d="m 462.2,165.2 h 0.6 v 0.4 h -0.6 v 1.9 c 0,0.2 0.1,0.3 0.4,0.3 h 0.2 v 0.4 h -0.4 c -0.5,0 -0.7,-0.1 -0.7,-0.7 v -2 h -0.5 v -0.4 h 0.5 v -0.9 h 0.5 v 1 z" /><path
     style="fill:#4d4d4d"
     inkscape:connector-curvature="0"
     id="path258"
     d="m 466,168.3 c -0.1,0.1 -0.2,0.1 -0.4,0.1 -0.3,0 -0.4,-0.1 -0.4,-0.5 -0.3,0.3 -0.7,0.5 -1.1,0.5 -0.6,0 -1,-0.3 -1,-0.9 0,-0.7 0.5,-0.9 1,-1 0.6,-0.1 1,-0.1 1,-0.5 0,-0.4 -0.4,-0.5 -0.7,-0.5 -0.4,0 -0.8,0.1 -0.8,0.6 h -0.5 c 0,-0.8 0.6,-1 1.3,-1 0.6,0 1.2,0.1 1.2,0.9 v 1.6 c 0,0.2 0,0.3 0.2,0.3 0,0 0.1,0 0.2,0 v 0.4 z m -0.8,-1.6 c -0.2,0.1 -0.6,0.1 -0.9,0.2 -0.3,0.1 -0.6,0.2 -0.6,0.6 0,0.3 0.3,0.5 0.6,0.5 0.7,0 0.9,-0.4 0.9,-0.7 v -0.6 z" /><path
     style="fill:#4d4d4d"
     inkscape:connector-curvature="0"
     id="path260"
     d="m 470,166.2 c -0.1,-0.4 -0.3,-0.6 -0.8,-0.6 -0.7,0 -1,0.6 -1,1.2 0,0.6 0.3,1.1 0.9,1.1 0.5,0 0.8,-0.3 0.9,-0.8 h 0.5 c -0.1,0.8 -0.6,1.2 -1.4,1.2 -0.9,0 -1.5,-0.7 -1.5,-1.6 0,-0.9 0.5,-1.7 1.5,-1.7 0.7,0 1.3,0.3 1.3,1.1 H 470 z" /><path
     style="fill:#4d4d4d"
     inkscape:connector-curvature="0"
     id="path262"
     d="m 473.6,167.3 c -0.1,0.7 -0.6,1.1 -1.3,1.1 -1,0 -1.5,-0.7 -1.5,-1.6 0,-0.9 0.6,-1.6 1.5,-1.6 1.1,0 1.4,1 1.4,1.8 h -2.3 c 0,0.5 0.3,1 1,1 0.4,0 0.7,-0.2 0.8,-0.6 h 0.4 z m -0.5,-0.9 c 0,-0.5 -0.4,-0.9 -0.9,-0.9 -0.5,0 -0.9,0.4 -0.9,0.9 h 1.8 z" /><path
     style="fill:#4d4d4d"
     inkscape:connector-curvature="0"
     id="path264"
     d="m 474,165.2 h 0.5 v 0.7 h 0 c 0.2,-0.5 0.6,-0.7 1.1,-0.7 v 0.5 c -0.8,0 -1.1,0.5 -1.1,1.3 v 1.4 H 474 v -3.2 z" /><path
     style="fill:#4d4d4d"
     inkscape:connector-curvature="0"
     id="path266"
     d="m 476.5,165.2 h 0.6 v 0.4 h -0.6 v 1.9 c 0,0.2 0.1,0.3 0.4,0.3 h 0.2 v 0.4 h -0.4 c -0.5,0 -0.7,-0.1 -0.7,-0.7 v -2 h -0.5 v -0.4 h 0.5 v -0.9 h 0.5 v 1 z" /><path
     style="fill:#4d4d4d"
     inkscape:connector-curvature="0"
     id="path268"
     d="m 478.1,164.6 h -0.5 V 164 h 0.5 v 0.6 z m -0.5,0.6 h 0.5 v 3.1 h -0.5 v -3.1 z" /><path
     style="fill:#4d4d4d"
     inkscape:connector-curvature="0"
     id="path270"
     d="m 479,165.6 h -0.5 v -0.4 h 0.5 v -0.5 c 0,-0.5 0.3,-0.8 0.9,-0.8 0.1,0 0.2,0 0.3,0 v 0.4 c -0.1,0 -0.2,0 -0.3,0 -0.2,0 -0.4,0.1 -0.4,0.3 v 0.4 h 0.6 v 0.4 h -0.6 v 2.7 H 479 v -2.5 z m 1.6,-1 V 164 h 0.5 v 0.6 h -0.5 z m 0,3.7 v -3.1 h 0.5 v 3.1 h -0.5 z" /><path
     style="fill:#4d4d4d"
     inkscape:connector-curvature="0"
     id="path272"
     d="m 483.8,166.2 c -0.1,-0.4 -0.3,-0.6 -0.8,-0.6 -0.7,0 -1,0.6 -1,1.2 0,0.6 0.3,1.1 0.9,1.1 0.5,0 0.8,-0.3 0.9,-0.8 h 0.5 c -0.1,0.8 -0.6,1.2 -1.4,1.2 -0.9,0 -1.5,-0.7 -1.5,-1.6 0,-0.9 0.5,-1.7 1.5,-1.7 0.7,0 1.3,0.3 1.3,1.1 h -0.4 z" /><path
     style="fill:#4d4d4d"
     inkscape:connector-curvature="0"
     id="path274"
     d="m 487.5,168.3 c -0.1,0.1 -0.2,0.1 -0.4,0.1 -0.3,0 -0.4,-0.1 -0.4,-0.5 -0.3,0.3 -0.7,0.5 -1.1,0.5 -0.6,0 -1,-0.3 -1,-0.9 0,-0.7 0.5,-0.9 1,-1 0.6,-0.1 1,-0.1 1,-0.5 0,-0.4 -0.4,-0.5 -0.7,-0.5 -0.4,0 -0.8,0.1 -0.8,0.6 h -0.5 c 0,-0.8 0.6,-1 1.3,-1 0.6,0 1.2,0.1 1.2,0.9 v 1.6 c 0,0.2 0,0.3 0.2,0.3 0,0 0.1,0 0.2,0 v 0.4 z m -0.8,-1.6 c -0.2,0.1 -0.6,0.1 -0.9,0.2 -0.3,0.1 -0.6,0.2 -0.6,0.6 0,0.3 0.3,0.5 0.6,0.5 0.7,0 0.9,-0.4 0.9,-0.7 v -0.6 z" /><path
     style="fill:#4d4d4d"
     inkscape:connector-curvature="0"
     id="path276"
     d="m 490.6,168.3 h -0.5 v -0.4 h 0 c -0.2,0.3 -0.6,0.5 -1,0.5 -1,0 -1.4,-0.8 -1.4,-1.6 0,-0.9 0.5,-1.6 1.4,-1.6 0.3,0 0.8,0.1 1,0.5 h 0 V 164 h 0.5 v 4.3 z m -1.4,-0.4 c 0.7,0 0.9,-0.6 0.9,-1.2 0,-0.6 -0.3,-1.2 -1,-1.2 -0.7,0 -0.9,0.6 -0.9,1.2 0,0.6 0.3,1.2 1,1.2 z" /><path
     style="fill:#4d4d4d"
     inkscape:connector-curvature="0"
     id="path278"
     d="m 492.6,165.1 c 1,0 1.5,0.7 1.5,1.6 0,0.9 -0.5,1.6 -1.5,1.6 -1,0 -1.5,-0.7 -1.5,-1.6 0,-0.9 0.5,-1.6 1.5,-1.6 z m 0,2.8 c 0.5,0 1,-0.4 1,-1.2 0,-0.8 -0.4,-1.2 -1,-1.2 -0.5,0 -1,0.4 -1,1.2 0,0.8 0.5,1.2 1,1.2 z" /><path
     style="fill:#4d4d4d"
     inkscape:connector-curvature="0"
     id="path280"
     d="m 496.1,164 h 0.5 v 4.3 h -0.5 V 164 z" /><path
     style="fill:#4d4d4d"
     inkscape:connector-curvature="0"
     id="path282"
     d="m 499.9,167.3 c -0.1,0.7 -0.6,1.1 -1.3,1.1 -1,0 -1.5,-0.7 -1.5,-1.6 0,-0.9 0.6,-1.6 1.5,-1.6 1.1,0 1.4,1 1.4,1.8 h -2.3 c 0,0.5 0.3,1 1,1 0.4,0 0.7,-0.2 0.8,-0.6 h 0.4 z m -0.5,-0.9 c 0,-0.5 -0.4,-0.9 -0.9,-0.9 -0.5,0 -0.9,0.4 -0.9,0.9 h 1.8 z" /><path
     style="fill:#4d4d4d"
     inkscape:connector-curvature="0"
     id="path284"
     d="m 503,168 c 0,1 -0.5,1.5 -1.4,1.5 -0.6,0 -1.3,-0.2 -1.3,-0.9 h 0.5 c 0,0.4 0.5,0.5 0.8,0.5 0.7,0 0.9,-0.5 0.9,-1.2 v -0.2 h 0 c -0.2,0.4 -0.6,0.6 -1,0.6 -0.9,0 -1.4,-0.7 -1.4,-1.6 0,-0.7 0.4,-1.6 1.4,-1.6 0.4,0 0.7,0.2 0.9,0.5 h 0 v -0.4 h 0.5 v 2.8 z m -0.5,-1.3 c 0,-0.5 -0.2,-1.1 -0.9,-1.1 -0.7,0 -0.9,0.5 -0.9,1.1 0,0.6 0.2,1.2 0.9,1.2 0.7,0 0.9,-0.7 0.9,-1.2 z" /><path
     style="fill:#4d4d4d"
     inkscape:connector-curvature="0"
     id="path286"
     d="m 506.4,168.3 c -0.1,0.1 -0.2,0.1 -0.4,0.1 -0.3,0 -0.4,-0.1 -0.4,-0.5 -0.3,0.3 -0.7,0.5 -1.1,0.5 -0.6,0 -1,-0.3 -1,-0.9 0,-0.7 0.5,-0.9 1,-1 0.6,-0.1 1,-0.1 1,-0.5 0,-0.4 -0.4,-0.5 -0.7,-0.5 -0.4,0 -0.7,0.1 -0.8,0.6 h -0.5 c 0,-0.8 0.6,-1 1.3,-1 0.6,0 1.2,0.1 1.2,0.9 v 1.6 c 0,0.2 0,0.3 0.2,0.3 0,0 0.1,0 0.2,0 v 0.4 z m -0.8,-1.6 c -0.2,0.1 -0.6,0.1 -0.9,0.2 -0.3,0.1 -0.6,0.2 -0.6,0.6 0,0.3 0.3,0.5 0.6,0.5 0.7,0 0.9,-0.4 0.9,-0.7 v -0.6 z" /><path
     style="fill:#4d4d4d"
     inkscape:connector-curvature="0"
     id="path288"
     d="m 506.7,164 h 0.5 v 4.3 h -0.5 V 164 z" /><path
     style="fill:#4d4d4d"
     inkscape:connector-curvature="0"
     id="path290"
     d="m 512.2,168.3 h -0.5 v -0.4 h 0 c -0.2,0.3 -0.6,0.5 -1,0.5 -1,0 -1.4,-0.8 -1.4,-1.6 0,-0.9 0.5,-1.6 1.4,-1.6 0.3,0 0.8,0.1 1,0.5 h 0 V 164 h 0.5 v 4.3 z m -1.5,-0.4 c 0.7,0 0.9,-0.6 0.9,-1.2 0,-0.6 -0.3,-1.2 -1,-1.2 -0.7,0 -0.9,0.6 -0.9,1.2 0.1,0.6 0.4,1.2 1,1.2 z" /><path
     style="fill:#4d4d4d"
     inkscape:connector-curvature="0"
     id="path292"
     d="m 515.5,167.3 c -0.1,0.7 -0.6,1.1 -1.3,1.1 -1,0 -1.5,-0.7 -1.5,-1.6 0,-0.9 0.6,-1.6 1.5,-1.6 1.1,0 1.4,1 1.4,1.8 h -2.3 c 0,0.5 0.3,1 1,1 0.4,0 0.7,-0.2 0.8,-0.6 h 0.4 z m -0.5,-0.9 c 0,-0.5 -0.4,-0.9 -0.9,-0.9 -0.5,0 -0.9,0.4 -0.9,0.9 h 1.8 z" /><path
     style="fill:#4d4d4d"
     inkscape:connector-curvature="0"
     id="path294"
     d="m 304.4,173.4 c -0.1,-0.4 -0.3,-0.6 -0.8,-0.6 -0.7,0 -1,0.6 -1,1.2 0,0.6 0.3,1.1 0.9,1.1 0.5,0 0.8,-0.3 0.9,-0.8 h 0.5 c -0.1,0.8 -0.6,1.2 -1.4,1.2 -0.9,0 -1.5,-0.7 -1.5,-1.6 0,-0.9 0.5,-1.7 1.5,-1.7 0.7,0 1.3,0.3 1.3,1.1 h -0.4 z" /><path
     style="fill:#4d4d4d"
     inkscape:connector-curvature="0"
     id="path296"
     d="m 306.7,172.3 c 1,0 1.5,0.7 1.5,1.6 0,0.9 -0.5,1.6 -1.5,1.6 -1,0 -1.5,-0.7 -1.5,-1.6 0,-0.9 0.5,-1.6 1.5,-1.6 z m 0,2.8 c 0.5,0 1,-0.4 1,-1.2 0,-0.8 -0.4,-1.2 -1,-1.2 -0.5,0 -1,0.4 -1,1.2 0.1,0.8 0.5,1.2 1,1.2 z" /><path
     style="fill:#4d4d4d"
     inkscape:connector-curvature="0"
     id="path298"
     d="m 308.7,172.4 h 0.5 v 0.5 h 0 c 0.2,-0.4 0.6,-0.6 1,-0.6 0.8,0 1.1,0.5 1.1,1.1 v 2 h -0.5 v -2.1 c 0,-0.4 -0.2,-0.6 -0.6,-0.6 -0.6,0 -0.9,0.4 -0.9,1 v 1.8 h -0.5 v -3.1 z" /><path
     style="fill:#4d4d4d"
     inkscape:connector-curvature="0"
     id="path300"
     d="m 314.6,175.5 h -0.5 V 175 h 0 c -0.2,0.3 -0.6,0.5 -1,0.5 -1,0 -1.4,-0.8 -1.4,-1.6 0,-0.8 0.5,-1.6 1.4,-1.6 0.3,0 0.8,0.1 1,0.5 h 0 v -1.6 h 0.5 v 4.3 z m -1.4,-0.4 c 0.7,0 0.9,-0.6 0.9,-1.2 0,-0.6 -0.3,-1.2 -1,-1.2 -0.7,0 -0.9,0.6 -0.9,1.2 0,0.6 0.3,1.2 1,1.2 z" /><path
     style="fill:#4d4d4d"
     inkscape:connector-curvature="0"
     id="path302"
     d="m 317.8,175.5 h -0.5 V 175 h 0 c -0.2,0.4 -0.6,0.6 -1,0.6 -0.8,0 -1.1,-0.5 -1.1,-1.1 v -2 h 0.5 v 2.1 c 0,0.4 0.2,0.6 0.6,0.6 0.6,0 0.9,-0.4 0.9,-1 v -1.8 h 0.5 v 3.1 z" /><path
     style="fill:#4d4d4d"
     inkscape:connector-curvature="0"
     id="path304"
     d="m 320.6,173.4 c -0.1,-0.4 -0.3,-0.6 -0.8,-0.6 -0.7,0 -1,0.6 -1,1.2 0,0.6 0.3,1.1 0.9,1.1 0.5,0 0.8,-0.3 0.9,-0.8 h 0.5 c -0.1,0.8 -0.6,1.2 -1.4,1.2 -0.9,0 -1.5,-0.7 -1.5,-1.6 0,-0.9 0.5,-1.7 1.5,-1.7 0.7,0 1.3,0.3 1.3,1.1 h -0.4 z" /><path
     style="fill:#4d4d4d"
     inkscape:connector-curvature="0"
     id="path306"
     d="m 323.6,173.4 c -0.1,-0.4 -0.3,-0.6 -0.8,-0.6 -0.7,0 -1,0.6 -1,1.2 0,0.6 0.3,1.1 0.9,1.1 0.5,0 0.8,-0.3 0.9,-0.8 h 0.5 c -0.1,0.8 -0.6,1.2 -1.4,1.2 -0.9,0 -1.5,-0.7 -1.5,-1.6 0,-0.9 0.5,-1.7 1.5,-1.7 0.7,0 1.3,0.3 1.3,1.1 h -0.4 z" /><path
     style="fill:#4d4d4d"
     inkscape:connector-curvature="0"
     id="path308"
     d="m 325.2,171.8 h -0.5 v -0.6 h 0.5 v 0.6 z m -0.6,0.6 h 0.5 v 3.1 h -0.5 v -3.1 z" /><path
     style="fill:#4d4d4d"
     inkscape:connector-curvature="0"
     id="path310"
     d="m 327.1,172.3 c 1,0 1.5,0.7 1.5,1.6 0,0.9 -0.5,1.6 -1.5,1.6 -1,0 -1.5,-0.7 -1.5,-1.6 0,-0.9 0.5,-1.6 1.5,-1.6 z m 0,2.8 c 0.5,0 1,-0.4 1,-1.2 0,-0.8 -0.4,-1.2 -1,-1.2 -0.6,0 -1,0.4 -1,1.2 0.1,0.8 0.5,1.2 1,1.2 z m 0.2,-4 h 0.7 l -0.8,0.9 h -0.4 l 0.5,-0.9 z" /><path
     style="fill:#4d4d4d"
     inkscape:connector-curvature="0"
     id="path312"
     d="m 329.1,172.4 h 0.5 v 0.5 h 0 c 0.2,-0.4 0.6,-0.6 1,-0.6 0.8,0 1.1,0.5 1.1,1.1 v 2 h -0.5 v -2.1 c 0,-0.4 -0.2,-0.6 -0.6,-0.6 -0.6,0 -0.9,0.4 -0.9,1 v 1.8 h -0.5 v -3.1 z" /><path
     style="fill:#4d4d4d"
     inkscape:connector-curvature="0"
     id="path314"
     d="m 332.4,174.8 h 0.7 v 0.6 c 0,0.4 -0.2,0.8 -0.7,0.9 V 176 c 0.3,-0.1 0.4,-0.4 0.3,-0.6 h -0.4 v -0.6 z" /><path
     style="fill:#4d4d4d"
     inkscape:connector-curvature="0"
     id="path316"
     d="m 335.3,172.4 h 0.5 v 0.5 h 0 c 0.2,-0.4 0.6,-0.6 1,-0.6 0.8,0 1.1,0.5 1.1,1.1 v 2 h -0.5 v -2.1 c 0,-0.4 -0.2,-0.6 -0.6,-0.6 -0.6,0 -0.9,0.4 -0.9,1 v 1.8 h -0.5 v -3.1 z" /><path
     style="fill:#4d4d4d"
     inkscape:connector-curvature="0"
     id="path318"
     d="m 339,171.8 h -0.5 v -0.6 h 0.5 v 0.6 z m -0.5,0.6 h 0.5 v 3.1 h -0.5 v -3.1 z" /><path
     style="fill:#4d4d4d"
     inkscape:connector-curvature="0"
     id="path320"
     d="m 341.2,172.4 h 0.5 v 0.7 h 0 c 0.2,-0.5 0.6,-0.7 1.1,-0.7 v 0.5 c -0.8,0 -1.1,0.5 -1.1,1.3 v 1.4 h -0.5 v -3.2 z" /><path
     style="fill:#4d4d4d"
     inkscape:connector-curvature="0"
     id="path322"
     d="m 345.6,174.5 c -0.1,0.7 -0.6,1.1 -1.3,1.1 -1,0 -1.5,-0.7 -1.5,-1.6 0,-0.9 0.6,-1.6 1.5,-1.6 1.1,0 1.4,1 1.4,1.8 h -2.3 c 0,0.5 0.3,1 1,1 0.4,0 0.7,-0.2 0.8,-0.6 h 0.4 z m -0.5,-0.9 c 0,-0.5 -0.4,-0.9 -0.9,-0.9 -0.5,0 -0.9,0.4 -0.9,0.9 h 1.8 z" /><path
     style="fill:#4d4d4d"
     inkscape:connector-curvature="0"
     id="path324"
     d="m 348.7,174.5 c -0.1,0.7 -0.6,1.1 -1.3,1.1 -1,0 -1.5,-0.7 -1.5,-1.6 0,-0.9 0.6,-1.6 1.5,-1.6 1.1,0 1.4,1 1.4,1.8 h -2.3 c 0,0.5 0.3,1 1,1 0.4,0 0.7,-0.2 0.8,-0.6 h 0.4 z m -0.5,-0.9 c 0,-0.5 -0.4,-0.9 -0.9,-0.9 -0.5,0 -0.9,0.4 -0.9,0.9 h 1.8 z" /><path
     style="fill:#4d4d4d"
     inkscape:connector-curvature="0"
     id="path326"
     d="m 349.1,172.4 h 0.5 v 0.5 h 0 c 0.2,-0.3 0.6,-0.5 1,-0.5 0.4,0 0.7,0.1 0.9,0.5 0.2,-0.3 0.6,-0.5 1,-0.5 0.6,0 1,0.3 1,0.9 v 2.3 H 353 v -2 c 0,-0.4 -0.1,-0.7 -0.6,-0.7 -0.5,0 -0.8,0.3 -0.8,0.8 v 1.9 H 351 v -2 c 0,-0.4 -0.1,-0.7 -0.6,-0.7 -0.6,0 -0.8,0.6 -0.8,0.8 v 1.9 h -0.5 v -3.2 z" /><path
     style="fill:#4d4d4d"
     inkscape:connector-curvature="0"
     id="path328"
     d="m 354.1,172.4 h 0.5 v 0.4 h 0 c 0.2,-0.3 0.6,-0.5 1,-0.5 1,0 1.4,0.8 1.4,1.6 0,0.9 -0.5,1.6 -1.4,1.6 -0.3,0 -0.8,-0.1 -1,-0.5 h 0 v 1.6 h -0.5 v -4.2 z m 1.4,0.3 c -0.7,0 -0.9,0.6 -0.9,1.2 0,0.6 0.3,1.2 1,1.2 0.7,0 0.9,-0.6 0.9,-1.2 0,-0.6 -0.3,-1.2 -1,-1.2 z" /><path
     style="fill:#4d4d4d"
     inkscape:connector-curvature="0"
     id="path330"
     d="m 357.5,171.2 h 0.5 v 4.3 h -0.5 v -4.3 z" /><path
     style="fill:#4d4d4d"
     inkscape:connector-curvature="0"
     id="path332"
     d="m 361.4,175.5 c -0.1,0.1 -0.2,0.1 -0.4,0.1 -0.3,0 -0.4,-0.1 -0.4,-0.5 -0.3,0.3 -0.7,0.5 -1.1,0.5 -0.6,0 -1,-0.3 -1,-0.9 0,-0.7 0.5,-0.9 1,-1 0.6,-0.1 1,-0.1 1,-0.5 0,-0.4 -0.4,-0.5 -0.7,-0.5 -0.4,0 -0.8,0.1 -0.8,0.6 h -0.5 c 0,-0.8 0.6,-1 1.3,-1 0.6,0 1.2,0.1 1.2,0.9 v 1.6 c 0,0.2 0,0.3 0.2,0.3 0,0 0.1,0 0.2,0 v 0.4 z m -0.8,-1.6 c -0.2,0.1 -0.6,0.1 -0.9,0.2 -0.3,0.1 -0.6,0.2 -0.6,0.6 0,0.3 0.3,0.5 0.6,0.5 0.7,0 0.9,-0.4 0.9,-0.7 v -0.6 z" /><path
     style="fill:#4d4d4d"
     inkscape:connector-curvature="0"
     id="path334"
     d="m 361.5,175.1 1.9,-2.3 h -1.8 v -0.4 h 2.4 v 0.3 l -1.9,2.3 h 2 v 0.4 h -2.6 v -0.3 z" /><path
     style="fill:#4d4d4d"
     inkscape:connector-curvature="0"
     id="path336"
     d="m 367.2,175.5 c -0.1,0.1 -0.2,0.1 -0.4,0.1 -0.3,0 -0.4,-0.1 -0.4,-0.5 -0.3,0.3 -0.7,0.5 -1.1,0.5 -0.6,0 -1,-0.3 -1,-0.9 0,-0.7 0.5,-0.9 1,-1 0.6,-0.1 1,-0.1 1,-0.5 0,-0.4 -0.4,-0.5 -0.7,-0.5 -0.4,0 -0.7,0.1 -0.8,0.6 h -0.5 c 0,-0.8 0.6,-1 1.3,-1 0.6,0 1.2,0.1 1.2,0.9 v 1.6 c 0,0.2 0,0.3 0.2,0.3 0,0 0.1,0 0.2,0 v 0.4 z m -0.8,-1.6 c -0.2,0.1 -0.6,0.1 -0.9,0.2 -0.3,0.1 -0.6,0.2 -0.6,0.6 0,0.3 0.3,0.5 0.6,0.5 0.7,0 0.9,-0.4 0.9,-0.7 v -0.6 z" /><path
     style="fill:#4d4d4d"
     inkscape:connector-curvature="0"
     id="path338"
     d="m 369.1,171.2 h 0.5 v 4.3 h -0.5 v -4.3 z" /><path
     style="fill:#4d4d4d"
     inkscape:connector-curvature="0"
     id="path340"
     d="m 371.5,172.3 c 1,0 1.5,0.7 1.5,1.6 0,0.9 -0.5,1.6 -1.5,1.6 -1,0 -1.5,-0.7 -1.5,-1.6 0,-0.9 0.6,-1.6 1.5,-1.6 z m 0,2.8 c 0.5,0 1,-0.4 1,-1.2 0,-0.8 -0.4,-1.2 -1,-1.2 -0.6,0 -1,0.4 -1,1.2 0.1,0.8 0.5,1.2 1,1.2 z" /><path
     style="fill:#4d4d4d"
     inkscape:connector-curvature="0"
     id="path342"
     d="m 373.8,174.5 c 0,0.5 0.4,0.6 0.8,0.6 0.3,0 0.8,-0.1 0.8,-0.5 0,-0.4 -0.5,-0.5 -1,-0.6 -0.5,-0.1 -1,-0.3 -1,-0.9 0,-0.6 0.6,-0.9 1.2,-0.9 0.7,0 1.2,0.2 1.3,1 h -0.5 c 0,-0.4 -0.4,-0.5 -0.7,-0.5 -0.3,0 -0.7,0.1 -0.7,0.4 0,0.4 0.5,0.4 1,0.5 0.5,0.1 1,0.3 1,0.9 0,0.7 -0.7,1 -1.3,1 -0.7,0 -1.3,-0.3 -1.3,-1 h 0.4 z" /><path
     style="fill:#4d4d4d"
     inkscape:connector-curvature="0"
     id="path344"
     d="m 380.6,175.5 h -0.5 V 175 h 0 c -0.2,0.3 -0.6,0.5 -1,0.5 -1,0 -1.4,-0.8 -1.4,-1.6 0,-0.8 0.5,-1.6 1.4,-1.6 0.3,0 0.8,0.1 1,0.5 h 0 v -1.6 h 0.5 v 4.3 z m -1.4,-0.4 c 0.7,0 0.9,-0.6 0.9,-1.2 0,-0.6 -0.3,-1.2 -1,-1.2 -0.7,0 -0.9,0.6 -0.9,1.2 0,0.6 0.3,1.2 1,1.2 z" /><path
     style="fill:#4d4d4d"
     inkscape:connector-curvature="0"
     id="path346"
     d="m 382.6,172.3 c 1,0 1.5,0.7 1.5,1.6 0,0.9 -0.5,1.6 -1.5,1.6 -1,0 -1.5,-0.7 -1.5,-1.6 0,-0.9 0.5,-1.6 1.5,-1.6 z m 0,2.8 c 0.5,0 1,-0.4 1,-1.2 0,-0.8 -0.4,-1.2 -1,-1.2 -0.5,0 -1,0.4 -1,1.2 0.1,0.8 0.5,1.2 1,1.2 z" /><path
     style="fill:#4d4d4d"
     inkscape:connector-curvature="0"
     id="path348"
     d="m 386.7,173.4 c -0.1,-0.4 -0.3,-0.6 -0.8,-0.6 -0.7,0 -1,0.6 -1,1.2 0,0.6 0.3,1.1 0.9,1.1 0.5,0 0.8,-0.3 0.9,-0.8 h 0.5 c -0.1,0.8 -0.6,1.2 -1.4,1.2 -0.9,0 -1.5,-0.7 -1.5,-1.6 0,-0.9 0.5,-1.7 1.5,-1.7 0.7,0 1.3,0.3 1.3,1.1 h -0.4 z" /><path
     style="fill:#4d4d4d"
     inkscape:connector-curvature="0"
     id="path350"
     d="m 390.2,175.5 h -0.5 V 175 h 0 c -0.2,0.4 -0.6,0.6 -1,0.6 -0.8,0 -1.1,-0.5 -1.1,-1.1 v -2 h 0.5 v 2.1 c 0,0.4 0.2,0.6 0.6,0.6 0.6,0 0.9,-0.4 0.9,-1 v -1.8 h 0.5 v 3.1 z" /><path
     style="fill:#4d4d4d"
     inkscape:connector-curvature="0"
     id="path352"
     d="m 390.8,172.4 h 0.5 v 0.5 h 0 c 0.2,-0.3 0.6,-0.5 1,-0.5 0.4,0 0.7,0.1 0.9,0.5 0.2,-0.3 0.6,-0.5 1,-0.5 0.6,0 1,0.3 1,0.9 v 2.3 h -0.5 v -2 c 0,-0.4 -0.1,-0.7 -0.6,-0.7 -0.5,0 -0.8,0.3 -0.8,0.8 v 1.9 h -0.5 v -2 c 0,-0.4 -0.1,-0.7 -0.6,-0.7 -0.6,0 -0.8,0.6 -0.8,0.8 v 1.9 h -0.5 v -3.2 z" /><path
     style="fill:#4d4d4d"
     inkscape:connector-curvature="0"
     id="path354"
     d="m 398.4,174.5 c -0.1,0.7 -0.6,1.1 -1.3,1.1 -1,0 -1.5,-0.7 -1.5,-1.6 0,-0.9 0.6,-1.6 1.5,-1.6 1.1,0 1.4,1 1.4,1.8 h -2.3 c 0,0.5 0.3,1 1,1 0.4,0 0.7,-0.2 0.8,-0.6 h 0.4 z m -0.4,-0.9 c 0,-0.5 -0.4,-0.9 -0.9,-0.9 -0.5,0 -0.9,0.4 -0.9,0.9 h 1.8 z" /><path
     style="fill:#4d4d4d"
     inkscape:connector-curvature="0"
     id="path356"
     d="m 398.9,172.4 h 0.5 v 0.5 h 0 c 0.2,-0.4 0.6,-0.6 1,-0.6 0.8,0 1.1,0.5 1.1,1.1 v 2 H 401 v -2.1 c 0,-0.4 -0.2,-0.6 -0.6,-0.6 -0.6,0 -0.9,0.4 -0.9,1 v 1.8 H 399 v -3.1 z" /><path
     style="fill:#4d4d4d"
     inkscape:connector-curvature="0"
     id="path358"
     d="m 402.8,172.4 h 0.6 v 0.4 h -0.6 v 1.9 c 0,0.2 0.1,0.3 0.4,0.3 h 0.2 v 0.4 H 403 c -0.5,0 -0.7,-0.1 -0.7,-0.7 v -2 h -0.5 v -0.4 h 0.5 v -0.9 h 0.5 v 1 z" /><path
     style="fill:#4d4d4d"
     inkscape:connector-curvature="0"
     id="path360"
     d="m 405.1,172.3 c 1,0 1.5,0.7 1.5,1.6 0,0.9 -0.5,1.6 -1.5,1.6 -1,0 -1.5,-0.7 -1.5,-1.6 0,-0.9 0.6,-1.6 1.5,-1.6 z m 0,2.8 c 0.5,0 1,-0.4 1,-1.2 0,-0.8 -0.4,-1.2 -1,-1.2 -0.6,0 -1,0.4 -1,1.2 0.1,0.8 0.5,1.2 1,1.2 z" /><path
     style="fill:#4d4d4d"
     inkscape:connector-curvature="0"
     id="path362"
     d="m 407.4,174.5 c 0,0.5 0.4,0.6 0.8,0.6 0.3,0 0.8,-0.1 0.8,-0.5 0,-0.4 -0.5,-0.5 -1,-0.6 -0.5,-0.1 -1,-0.3 -1,-0.9 0,-0.6 0.6,-0.9 1.2,-0.9 0.7,0 1.2,0.2 1.3,1 H 409 c 0,-0.4 -0.4,-0.5 -0.7,-0.5 -0.3,0 -0.7,0.1 -0.7,0.4 0,0.4 0.5,0.4 1,0.5 0.5,0.1 1,0.3 1,0.9 0,0.7 -0.7,1 -1.3,1 -0.7,0 -1.3,-0.3 -1.3,-1 h 0.4 z" /><path
     style="fill:#4d4d4d"
     inkscape:connector-curvature="0"
     id="path364"
     d="m 411.5,171.2 h 0.5 v 4.3 h -0.5 v -4.3 z" /><path
     style="fill:#4d4d4d"
     inkscape:connector-curvature="0"
     id="path366"
     d="m 415.3,174.5 c -0.1,0.7 -0.6,1.1 -1.3,1.1 -1,0 -1.5,-0.7 -1.5,-1.6 0,-0.9 0.6,-1.6 1.5,-1.6 1.1,0 1.4,1 1.4,1.8 H 413 c 0,0.5 0.3,1 1,1 0.4,0 0.7,-0.2 0.8,-0.6 h 0.5 z m -0.5,-0.9 c 0,-0.5 -0.4,-0.9 -0.9,-0.9 -0.5,0 -0.9,0.4 -0.9,0.9 h 1.8 z" /><path
     style="fill:#4d4d4d"
     inkscape:connector-curvature="0"
     id="path368"
     d="m 418.4,175.2 c 0,1 -0.5,1.5 -1.4,1.5 -0.6,0 -1.3,-0.2 -1.3,-0.9 h 0.5 c 0,0.4 0.5,0.5 0.8,0.5 0.7,0 0.9,-0.5 0.9,-1.2 v -0.2 h 0 c -0.2,0.4 -0.6,0.6 -1,0.6 -0.9,0 -1.4,-0.7 -1.4,-1.6 0,-0.7 0.4,-1.6 1.4,-1.6 0.4,0 0.7,0.2 0.9,0.5 h 0 v -0.4 h 0.5 v 2.8 z m -0.5,-1.3 c 0,-0.5 -0.2,-1.1 -0.9,-1.1 -0.7,0 -0.9,0.5 -0.9,1.1 0,0.6 0.2,1.2 0.9,1.2 0.6,0 0.9,-0.7 0.9,-1.2 z" /><path
     style="fill:#4d4d4d"
     inkscape:connector-curvature="0"
     id="path370"
     d="m 421.8,175.5 c -0.1,0.1 -0.2,0.1 -0.4,0.1 -0.3,0 -0.4,-0.1 -0.4,-0.5 -0.3,0.3 -0.7,0.5 -1.1,0.5 -0.6,0 -1,-0.3 -1,-0.9 0,-0.7 0.5,-0.9 1,-1 0.6,-0.1 1,-0.1 1,-0.5 0,-0.4 -0.4,-0.5 -0.7,-0.5 -0.4,0 -0.8,0.1 -0.8,0.6 H 419 c 0,-0.8 0.6,-1 1.3,-1 0.6,0 1.2,0.1 1.2,0.9 v 1.6 c 0,0.2 0,0.3 0.2,0.3 0,0 0.1,0 0.2,0 v 0.4 z m -0.9,-1.6 c -0.2,0.1 -0.6,0.1 -0.9,0.2 -0.3,0.1 -0.6,0.2 -0.6,0.6 0,0.3 0.3,0.5 0.6,0.5 0.7,0 0.9,-0.4 0.9,-0.7 v -0.6 z" /><path
     style="fill:#4d4d4d"
     inkscape:connector-curvature="0"
     id="path372"
     d="m 422.1,171.2 h 0.5 v 4.3 h -0.5 v -4.3 z" /><path
     style="fill:#4d4d4d"
     inkscape:connector-curvature="0"
     id="path374"
     d="m 423.3,172.4 h 0.5 v 0.5 h 0 c 0.2,-0.3 0.6,-0.5 1,-0.5 0.4,0 0.7,0.1 0.9,0.5 0.2,-0.3 0.6,-0.5 1,-0.5 0.6,0 1,0.3 1,0.9 v 2.3 h -0.5 v -2 c 0,-0.4 -0.1,-0.7 -0.6,-0.7 -0.5,0 -0.8,0.3 -0.8,0.8 v 1.9 h -0.5 v -2 c 0,-0.4 -0.1,-0.7 -0.6,-0.7 -0.6,0 -0.8,0.6 -0.8,0.8 v 1.9 h -0.5 v -3.2 z" /><path
     style="fill:#4d4d4d"
     inkscape:connector-curvature="0"
     id="path376"
     d="m 430.9,174.5 c -0.1,0.7 -0.6,1.1 -1.3,1.1 -1,0 -1.5,-0.7 -1.5,-1.6 0,-0.9 0.6,-1.6 1.5,-1.6 1.1,0 1.4,1 1.4,1.8 h -2.3 c 0,0.5 0.3,1 1,1 0.4,0 0.7,-0.2 0.8,-0.6 h 0.4 z m -0.5,-0.9 c 0,-0.5 -0.4,-0.9 -0.9,-0.9 -0.5,0 -0.9,0.4 -0.9,0.9 h 1.8 z" /><path
     style="fill:#4d4d4d"
     inkscape:connector-curvature="0"
     id="path378"
     d="m 431.3,172.4 h 0.5 v 0.5 h 0 c 0.2,-0.4 0.6,-0.6 1,-0.6 0.8,0 1.1,0.5 1.1,1.1 v 2 h -0.5 v -2.1 c 0,-0.4 -0.2,-0.6 -0.6,-0.6 -0.6,0 -0.9,0.4 -0.9,1 v 1.8 h -0.5 v -3.1 z" /><path
     style="fill:#4d4d4d"
     inkscape:connector-curvature="0"
     id="path380"
     d="m 435.2,172.4 h 0.6 v 0.4 h -0.6 v 1.9 c 0,0.2 0.1,0.3 0.4,0.3 h 0.2 v 0.4 h -0.4 c -0.5,0 -0.7,-0.1 -0.7,-0.7 v -2 h -0.5 v -0.4 h 0.5 v -0.9 h 0.5 v 1 z" /><path
     style="fill:#4d4d4d"
     inkscape:connector-curvature="0"
     id="path382"
     d="m 438.9,174.5 c -0.1,0.7 -0.6,1.1 -1.3,1.1 -1,0 -1.5,-0.7 -1.5,-1.6 0,-0.9 0.6,-1.6 1.5,-1.6 1.1,0 1.4,1 1.4,1.8 h -2.3 c 0,0.5 0.3,1 1,1 0.4,0 0.7,-0.2 0.8,-0.6 h 0.4 z m -0.5,-0.9 c 0,-0.5 -0.4,-0.9 -0.9,-0.9 -0.5,0 -0.9,0.4 -0.9,0.9 h 1.8 z" /><path
     style="fill:#4d4d4d"
     inkscape:connector-curvature="0"
     id="path384"
     d="m 443.5,174.5 c -0.1,0.7 -0.6,1.1 -1.3,1.1 -1,0 -1.5,-0.7 -1.5,-1.6 0,-0.9 0.6,-1.6 1.5,-1.6 1.1,0 1.4,1 1.4,1.8 h -2.3 c 0,0.5 0.3,1 1,1 0.4,0 0.7,-0.2 0.8,-0.6 h 0.4 z m -0.5,-0.9 c 0,-0.5 -0.4,-0.9 -0.9,-0.9 -0.5,0 -0.9,0.4 -0.9,0.9 h 1.8 z" /><path
     style="fill:#4d4d4d"
     inkscape:connector-curvature="0"
     id="path386"
     d="m 444.2,174.5 c 0,0.5 0.4,0.6 0.8,0.6 0.3,0 0.7,-0.1 0.7,-0.5 0,-0.4 -0.5,-0.5 -1,-0.6 -0.5,-0.1 -1,-0.3 -1,-0.9 0,-0.6 0.6,-0.9 1.2,-0.9 0.7,0 1.2,0.2 1.3,1 h -0.5 c 0,-0.4 -0.4,-0.5 -0.7,-0.5 -0.3,0 -0.7,0.1 -0.7,0.4 0,0.4 0.5,0.4 1,0.5 0.5,0.1 1,0.3 1,0.9 0,0.7 -0.7,1 -1.3,1 -0.7,0 -1.3,-0.3 -1.3,-1 h 0.5 z" /><path
     style="fill:#4d4d4d"
     inkscape:connector-curvature="0"
     id="path388"
     d="m 447.4,172.4 h 0.6 v 0.4 h -0.6 v 1.9 c 0,0.2 0.1,0.3 0.4,0.3 h 0.2 v 0.4 h -0.4 c -0.5,0 -0.7,-0.1 -0.7,-0.7 v -2 h -0.5 v -0.4 h 0.5 v -0.9 h 0.5 v 1 z" /><path
     style="fill:#4d4d4d"
     inkscape:connector-curvature="0"
     id="path390"
     d="m 451.2,175.5 c -0.1,0.1 -0.2,0.1 -0.4,0.1 -0.3,0 -0.4,-0.1 -0.4,-0.5 -0.3,0.3 -0.7,0.5 -1.1,0.5 -0.6,0 -1,-0.3 -1,-0.9 0,-0.7 0.5,-0.9 1,-1 0.6,-0.1 1,-0.1 1,-0.5 0,-0.4 -0.4,-0.5 -0.7,-0.5 -0.4,0 -0.7,0.1 -0.8,0.6 h -0.5 c 0,-0.8 0.6,-1 1.3,-1 0.6,0 1.2,0.1 1.2,0.9 v 1.6 c 0,0.2 0,0.3 0.2,0.3 0,0 0.1,0 0.2,0 v 0.4 z m -0.8,-1.6 c -0.2,0.1 -0.6,0.1 -0.9,0.2 -0.3,0.1 -0.6,0.2 -0.6,0.6 0,0.3 0.3,0.5 0.6,0.5 0.7,0 0.9,-0.4 0.9,-0.7 v -0.6 z" /><path
     style="fill:#4d4d4d"
     inkscape:connector-curvature="0"
     id="path392"
     d="m 451.6,171.2 h 0.5 v 1.6 h 0 c 0.2,-0.3 0.6,-0.5 1,-0.5 1,0 1.4,0.8 1.4,1.6 0,0.9 -0.5,1.6 -1.4,1.6 -0.3,0 -0.8,-0.1 -1,-0.5 h 0 v 0.4 h -0.5 v -4.2 z m 1.4,1.5 c -0.7,0 -0.9,0.6 -0.9,1.2 0,0.6 0.3,1.2 1,1.2 0.7,0 0.9,-0.6 0.9,-1.2 0,-0.6 -0.3,-1.2 -1,-1.2 z" /><path
     style="fill:#4d4d4d"
     inkscape:connector-curvature="0"
     id="path394"
     d="m 455,171.2 h 0.5 v 4.3 H 455 v -4.3 z" /><path
     style="fill:#4d4d4d"
     inkscape:connector-curvature="0"
     id="path396"
     d="m 458.8,174.5 c -0.1,0.7 -0.6,1.1 -1.3,1.1 -1,0 -1.5,-0.7 -1.5,-1.6 0,-0.9 0.6,-1.6 1.5,-1.6 1.1,0 1.4,1 1.4,1.8 h -2.3 c 0,0.5 0.3,1 1,1 0.4,0 0.7,-0.2 0.8,-0.6 h 0.4 z m -0.5,-0.9 c 0,-0.5 -0.4,-0.9 -0.9,-0.9 -0.5,0 -0.9,0.4 -0.9,0.9 h 1.8 z" /><path
     style="fill:#4d4d4d"
     inkscape:connector-curvature="0"
     id="path398"
     d="m 461.3,173.4 c -0.1,-0.4 -0.3,-0.6 -0.8,-0.6 -0.7,0 -1,0.6 -1,1.2 0,0.6 0.3,1.1 0.9,1.1 0.5,0 0.8,-0.3 0.9,-0.8 h 0.5 c -0.1,0.8 -0.6,1.2 -1.4,1.2 -0.9,0 -1.5,-0.7 -1.5,-1.6 0,-0.9 0.5,-1.7 1.5,-1.7 0.7,0 1.3,0.3 1.3,1.1 h -0.4 z" /><path
     style="fill:#4d4d4d"
     inkscape:connector-curvature="0"
     id="path400"
     d="m 462.8,171.8 h -0.5 v -0.6 h 0.5 v 0.6 z m -0.5,0.6 h 0.5 v 3.1 h -0.5 v -3.1 z" /><path
     style="fill:#4d4d4d"
     inkscape:connector-curvature="0"
     id="path402"
     d="m 466.2,175.5 h -0.5 V 175 h 0 c -0.2,0.3 -0.6,0.5 -1,0.5 -1,0 -1.4,-0.8 -1.4,-1.6 0,-0.8 0.5,-1.6 1.4,-1.6 0.3,0 0.8,0.1 1,0.5 h 0 v -1.6 h 0.5 v 4.3 z m -1.4,-0.4 c 0.7,0 0.9,-0.6 0.9,-1.2 0,-0.6 -0.3,-1.2 -1,-1.2 -0.7,0 -0.9,0.6 -0.9,1.2 0,0.6 0.3,1.2 1,1.2 z" /><path
     style="fill:#4d4d4d"
     inkscape:connector-curvature="0"
     id="path404"
     d="m 468.2,172.3 c 1,0 1.5,0.7 1.5,1.6 0,0.9 -0.5,1.6 -1.5,1.6 -1,0 -1.5,-0.7 -1.5,-1.6 0,-0.9 0.5,-1.6 1.5,-1.6 z m 0,2.8 c 0.5,0 1,-0.4 1,-1.2 0,-0.8 -0.4,-1.2 -1,-1.2 -0.5,0 -1,0.4 -1,1.2 0,0.8 0.5,1.2 1,1.2 z" /><path
     style="fill:#4d4d4d"
     inkscape:connector-curvature="0"
     id="path406"
     d="m 470.5,174.5 c 0,0.5 0.4,0.6 0.8,0.6 0.3,0 0.8,-0.1 0.8,-0.5 0,-0.4 -0.5,-0.5 -1,-0.6 -0.5,-0.1 -1,-0.3 -1,-0.9 0,-0.6 0.6,-0.9 1.2,-0.9 0.7,0 1.2,0.2 1.3,1 H 472 c 0,-0.4 -0.4,-0.5 -0.7,-0.5 -0.3,0 -0.7,0.1 -0.7,0.4 0,0.4 0.5,0.4 1,0.5 0.5,0.1 1,0.3 1,0.9 0,0.7 -0.7,1 -1.3,1 -0.7,0 -1.3,-0.3 -1.3,-1 h 0.5 z" /><path
     style="fill:#4d4d4d"
     inkscape:connector-curvature="0"
     id="path408"
     d="m 477.2,174.5 c -0.1,0.7 -0.6,1.1 -1.3,1.1 -1,0 -1.5,-0.7 -1.5,-1.6 0,-0.9 0.6,-1.6 1.5,-1.6 1.1,0 1.4,1 1.4,1.8 H 475 c 0,0.5 0.3,1 1,1 0.4,0 0.7,-0.2 0.8,-0.6 h 0.4 z m -0.5,-0.9 c 0,-0.5 -0.4,-0.9 -0.9,-0.9 -0.5,0 -0.9,0.4 -0.9,0.9 h 1.8 z" /><path
     style="fill:#4d4d4d"
     inkscape:connector-curvature="0"
     id="path410"
     d="m 477.6,172.4 h 0.5 v 0.5 h 0 c 0.2,-0.4 0.6,-0.6 1,-0.6 0.8,0 1.1,0.5 1.1,1.1 v 2 h -0.5 v -2.1 c 0,-0.4 -0.2,-0.6 -0.6,-0.6 -0.6,0 -0.9,0.4 -0.9,1 v 1.8 h -0.5 v -3.1 z" /><path
     style="fill:#4d4d4d"
     inkscape:connector-curvature="0"
     id="path412"
     d="m 483.6,171.2 h 0.6 l 1.7,4.3 h -0.6 l -0.5,-1.3 H 483 l -0.5,1.3 h -0.6 l 1.7,-4.3 z m -0.5,2.5 h 1.5 l -0.7,-2 h 0 l -0.8,2 z" /><path
     style="fill:#4d4d4d"
     inkscape:connector-curvature="0"
     id="path414"
     d="m 486,172.4 h 0.5 v 0.7 h 0 c 0.2,-0.5 0.6,-0.7 1.1,-0.7 v 0.5 c -0.8,0 -1.1,0.5 -1.1,1.3 v 1.4 H 486 v -3.2 z" /><path
     style="fill:#4d4d4d"
     inkscape:connector-curvature="0"
     id="path416"
     d="m 490.4,175.2 c 0,1 -0.5,1.5 -1.4,1.5 -0.6,0 -1.3,-0.2 -1.3,-0.9 h 0.5 c 0,0.4 0.5,0.5 0.8,0.5 0.7,0 0.9,-0.5 0.9,-1.2 v -0.2 h 0 c -0.2,0.4 -0.6,0.6 -1,0.6 -0.9,0 -1.4,-0.7 -1.4,-1.6 0,-0.7 0.4,-1.6 1.4,-1.6 0.4,0 0.7,0.2 0.9,0.5 h 0 v -0.4 h 0.5 v 2.8 z m -0.5,-1.3 c 0,-0.5 -0.2,-1.1 -0.9,-1.1 -0.7,0 -0.9,0.5 -0.9,1.1 0,0.6 0.2,1.2 0.9,1.2 0.7,0 0.9,-0.7 0.9,-1.2 z" /><path
     style="fill:#4d4d4d"
     inkscape:connector-curvature="0"
     id="path418"
     d="m 493.7,174.5 c -0.1,0.7 -0.6,1.1 -1.3,1.1 -1,0 -1.5,-0.7 -1.5,-1.6 0,-0.9 0.6,-1.6 1.5,-1.6 1.1,0 1.4,1 1.4,1.8 h -2.3 c 0,0.5 0.3,1 1,1 0.4,0 0.7,-0.2 0.8,-0.6 h 0.4 z m -0.5,-0.9 c 0,-0.5 -0.4,-0.9 -0.9,-0.9 -0.5,0 -0.9,0.4 -0.9,0.9 h 1.8 z" /><path
     style="fill:#4d4d4d"
     inkscape:connector-curvature="0"
     id="path420"
     d="m 494.1,172.4 h 0.5 v 0.5 h 0 c 0.2,-0.4 0.6,-0.6 1,-0.6 0.8,0 1.1,0.5 1.1,1.1 v 2 h -0.5 v -2.1 c 0,-0.4 -0.2,-0.6 -0.6,-0.6 -0.6,0 -0.9,0.4 -0.9,1 v 1.8 h -0.5 v -3.1 z" /><path
     style="fill:#4d4d4d"
     inkscape:connector-curvature="0"
     id="path422"
     d="m 498,172.4 h 0.6 v 0.4 H 498 v 1.9 c 0,0.2 0.1,0.3 0.4,0.3 h 0.2 v 0.4 h -0.4 c -0.5,0 -0.7,-0.1 -0.7,-0.7 v -2 H 497 v -0.4 h 0.5 v -0.9 h 0.5 v 1 z" /><path
     style="fill:#4d4d4d"
     inkscape:connector-curvature="0"
     id="path424"
     d="m 499.6,171.8 h -0.5 v -0.6 h 0.5 v 0.6 z m -0.5,0.6 h 0.5 v 3.1 h -0.5 v -3.1 z" /><path
     style="fill:#4d4d4d"
     inkscape:connector-curvature="0"
     id="path426"
     d="m 500.2,172.4 h 0.5 v 0.5 h 0 c 0.2,-0.4 0.6,-0.6 1,-0.6 0.8,0 1.1,0.5 1.1,1.1 v 2 h -0.5 v -2.1 c 0,-0.4 -0.2,-0.6 -0.6,-0.6 -0.6,0 -0.9,0.4 -0.9,1 v 1.8 h -0.5 v -3.1 z" /><path
     style="fill:#4d4d4d"
     inkscape:connector-curvature="0"
     id="path428"
     d="m 506.1,175.5 c -0.1,0.1 -0.2,0.1 -0.4,0.1 -0.3,0 -0.4,-0.1 -0.4,-0.5 -0.3,0.3 -0.7,0.5 -1.1,0.5 -0.6,0 -1,-0.3 -1,-0.9 0,-0.7 0.5,-0.9 1,-1 0.6,-0.1 1,-0.1 1,-0.5 0,-0.4 -0.4,-0.5 -0.7,-0.5 -0.4,0 -0.7,0.1 -0.8,0.6 h -0.5 c 0,-0.8 0.6,-1 1.3,-1 0.6,0 1.2,0.1 1.2,0.9 v 1.6 c 0,0.2 0,0.3 0.2,0.3 0,0 0.1,0 0.2,0 v 0.4 z m -0.8,-1.6 c -0.2,0.1 -0.6,0.1 -0.9,0.2 -0.3,0.1 -0.6,0.2 -0.6,0.6 0,0.3 0.3,0.5 0.6,0.5 0.7,0 0.9,-0.4 0.9,-0.7 v -0.6 z" /><path
     style="fill:#4d4d4d"
     inkscape:connector-curvature="0"
     id="path430"
     d="m 506.6,174.8 h 0.7 v 0.7 h -0.7 v -0.7 z" /><path
     style="fill:#4d4d4d"
     inkscape:connector-curvature="0"
     id="path432"
     d="m 302.4,178.4 h 3 v 0.5 H 303 v 1.4 h 2.2 v 0.5 H 303 v 1.5 h 2.4 v 0.5 h -3 v -4.4 z" /><path
     style="fill:#4d4d4d"
     inkscape:connector-curvature="0"
     id="path434"
     d="m 305.8,179.6 h 0.5 v 0.5 h 0 c 0.2,-0.4 0.6,-0.6 1,-0.6 0.8,0 1.1,0.5 1.1,1.1 v 2 h -0.5 v -2.1 c 0,-0.4 -0.2,-0.6 -0.6,-0.6 -0.6,0 -0.9,0.4 -0.9,1 v 1.8 h -0.5 v -3.1 z" /><path
     style="fill:#4d4d4d"
     inkscape:connector-curvature="0"
     id="path436"
     d="m 312.6,180.6 c -0.1,-0.4 -0.3,-0.6 -0.8,-0.6 -0.7,0 -1,0.6 -1,1.2 0,0.6 0.3,1.1 0.9,1.1 0.5,0 0.8,-0.3 0.9,-0.8 h 0.5 c -0.1,0.8 -0.6,1.2 -1.4,1.2 -0.9,0 -1.5,-0.7 -1.5,-1.6 0,-0.9 0.5,-1.7 1.5,-1.7 0.7,0 1.3,0.3 1.3,1.1 h -0.4 z" /><path
     style="fill:#4d4d4d"
     inkscape:connector-curvature="0"
     id="path438"
     d="m 316.4,182.7 c -0.1,0.1 -0.2,0.1 -0.4,0.1 -0.3,0 -0.4,-0.1 -0.4,-0.5 -0.3,0.3 -0.7,0.5 -1.1,0.5 -0.6,0 -1,-0.3 -1,-0.9 0,-0.7 0.5,-0.9 1,-1 0.6,-0.1 1,-0.1 1,-0.5 0,-0.4 -0.4,-0.5 -0.7,-0.5 -0.4,0 -0.8,0.1 -0.8,0.6 h -0.5 c 0,-0.8 0.6,-1 1.3,-1 0.6,0 1.2,0.1 1.2,0.9 v 1.6 c 0,0.2 0,0.3 0.2,0.3 0,0 0.1,0 0.2,0 v 0.4 z m -0.9,-1.6 c -0.2,0.1 -0.6,0.1 -0.9,0.2 -0.3,0.1 -0.6,0.2 -0.6,0.6 0,0.3 0.3,0.5 0.6,0.5 0.7,0 0.9,-0.4 0.9,-0.7 v -0.6 z" /><path
     style="fill:#4d4d4d"
     inkscape:connector-curvature="0"
     id="path440"
     d="m 317,181.7 c 0,0.5 0.4,0.6 0.8,0.6 0.3,0 0.7,-0.1 0.7,-0.5 0,-0.4 -0.5,-0.5 -1,-0.6 -0.5,-0.1 -1,-0.3 -1,-0.9 0,-0.6 0.6,-0.9 1.2,-0.9 0.7,0 1.2,0.2 1.3,1 h -0.5 c 0,-0.4 -0.4,-0.5 -0.7,-0.5 -0.3,0 -0.7,0.1 -0.7,0.4 0,0.4 0.5,0.4 1,0.5 0.5,0.1 1,0.3 1,0.9 0,0.7 -0.7,1 -1.3,1 -0.7,0 -1.3,-0.3 -1.3,-1 h 0.5 z" /><path
     style="fill:#4d4d4d"
     inkscape:connector-curvature="0"
     id="path442"
     d="m 320.9,179.5 c 1,0 1.5,0.7 1.5,1.6 0,0.9 -0.5,1.6 -1.5,1.6 -1,0 -1.5,-0.7 -1.5,-1.6 0,-0.9 0.5,-1.6 1.5,-1.6 z m 0,2.8 c 0.5,0 1,-0.4 1,-1.2 0,-0.8 -0.4,-1.2 -1,-1.2 -0.5,0 -1,0.4 -1,1.2 0,0.8 0.4,1.2 1,1.2 z" /><path
     style="fill:#4d4d4d"
     inkscape:connector-curvature="0"
     id="path444"
     d="m 327.1,182.7 h -0.5 v -0.4 h 0 c -0.2,0.3 -0.6,0.5 -1,0.5 -1,0 -1.4,-0.8 -1.4,-1.6 0,-0.9 0.5,-1.6 1.4,-1.6 0.3,0 0.8,0.1 1,0.5 h 0 v -1.6 h 0.5 v 4.2 z m -1.4,-0.4 c 0.7,0 0.9,-0.6 0.9,-1.2 0,-0.6 -0.3,-1.2 -1,-1.2 -0.7,0 -0.9,0.6 -0.9,1.2 0,0.6 0.3,1.2 1,1.2 z" /><path
     style="fill:#4d4d4d"
     inkscape:connector-curvature="0"
     id="path446"
     d="m 330.4,181.7 c -0.1,0.7 -0.6,1.1 -1.3,1.1 -1,0 -1.5,-0.7 -1.5,-1.6 0,-0.9 0.6,-1.6 1.5,-1.6 1.1,0 1.4,1 1.4,1.8 h -2.3 c 0,0.5 0.3,1 1,1 0.4,0 0.7,-0.2 0.8,-0.6 h 0.4 z m -0.5,-0.9 c 0,-0.5 -0.4,-0.9 -0.9,-0.9 -0.5,0 -0.9,0.4 -0.9,0.9 h 1.8 z" /><path
     style="fill:#4d4d4d"
     inkscape:connector-curvature="0"
     id="path448"
     d="m 332.4,179.6 h 0.5 v 0.4 h 0 c 0.2,-0.3 0.6,-0.5 1,-0.5 1,0 1.4,0.8 1.4,1.6 0,0.9 -0.5,1.6 -1.4,1.6 -0.3,0 -0.8,-0.1 -1,-0.5 h 0 v 1.6 h -0.5 v -4.2 z m 1.4,0.3 c -0.7,0 -0.9,0.6 -0.9,1.2 0,0.6 0.3,1.2 1,1.2 0.7,0 0.9,-0.6 0.9,-1.2 0,-0.6 -0.3,-1.2 -1,-1.2 z" /><path
     style="fill:#4d4d4d"
     inkscape:connector-curvature="0"
     id="path450"
     d="m 338.4,181.7 c -0.1,0.7 -0.6,1.1 -1.3,1.1 -1,0 -1.5,-0.7 -1.5,-1.6 0,-0.9 0.6,-1.6 1.5,-1.6 1.1,0 1.4,1 1.4,1.8 h -2.3 c 0,0.5 0.3,1 1,1 0.4,0 0.7,-0.2 0.8,-0.6 h 0.4 z m -0.5,-0.9 c 0,-0.5 -0.4,-0.9 -0.9,-0.9 -0.5,0 -0.9,0.4 -0.9,0.9 h 1.8 z m -0.8,-2.5 h 0.7 l -0.8,0.9 h -0.4 l 0.5,-0.9 z" /><path
     style="fill:#4d4d4d"
     inkscape:connector-curvature="0"
     id="path452"
     d="m 338.8,179.6 h 0.5 v 0.7 h 0 c 0.2,-0.5 0.6,-0.7 1.1,-0.7 v 0.5 c -0.8,0 -1.1,0.5 -1.1,1.3 v 1.4 h -0.5 v -3.2 z" /><path
     style="fill:#4d4d4d"
     inkscape:connector-curvature="0"
     id="path454"
     d="m 343.3,182.7 h -0.5 v -0.4 h 0 c -0.2,0.3 -0.6,0.5 -1,0.5 -1,0 -1.4,-0.8 -1.4,-1.6 0,-0.9 0.5,-1.6 1.4,-1.6 0.3,0 0.8,0.1 1,0.5 h 0 v -1.6 h 0.5 v 4.2 z m -1.4,-0.4 c 0.7,0 0.9,-0.6 0.9,-1.2 0,-0.6 -0.3,-1.2 -1,-1.2 -0.7,0 -0.9,0.6 -0.9,1.2 0,0.6 0.3,1.2 1,1.2 z" /><path
     style="fill:#4d4d4d"
     inkscape:connector-curvature="0"
     id="path456"
     d="M 344.5,179 H 344 v -0.6 h 0.5 v 0.6 z m -0.5,0.6 h 0.5 v 3.1 H 344 v -3.1 z" /><path
     style="fill:#4d4d4d"
     inkscape:connector-curvature="0"
     id="path458"
     d="m 347.9,182.7 h -0.5 v -0.4 h 0 c -0.2,0.3 -0.6,0.5 -1,0.5 -1,0 -1.4,-0.8 -1.4,-1.6 0,-0.9 0.5,-1.6 1.4,-1.6 0.3,0 0.8,0.1 1,0.5 h 0 v -1.6 h 0.5 v 4.2 z m -1.4,-0.4 c 0.7,0 0.9,-0.6 0.9,-1.2 0,-0.6 -0.3,-1.2 -1,-1.2 -0.7,0 -0.9,0.6 -0.9,1.2 0,0.6 0.3,1.2 1,1.2 z" /><path
     style="fill:#4d4d4d"
     inkscape:connector-curvature="0"
     id="path460"
     d="m 351.3,182.7 c -0.1,0.1 -0.2,0.1 -0.4,0.1 -0.3,0 -0.4,-0.1 -0.4,-0.5 -0.3,0.3 -0.7,0.5 -1.1,0.5 -0.6,0 -1,-0.3 -1,-0.9 0,-0.7 0.5,-0.9 1,-1 0.6,-0.1 1,-0.1 1,-0.5 0,-0.4 -0.4,-0.5 -0.7,-0.5 -0.4,0 -0.7,0.1 -0.8,0.6 h -0.5 c 0,-0.8 0.6,-1 1.3,-1 0.6,0 1.2,0.1 1.2,0.9 v 1.6 c 0,0.2 0,0.3 0.2,0.3 0,0 0.1,0 0.2,0 v 0.4 z m -0.8,-1.6 c -0.2,0.1 -0.6,0.1 -0.9,0.2 -0.3,0.1 -0.6,0.2 -0.6,0.6 0,0.3 0.3,0.5 0.6,0.5 0.7,0 0.9,-0.4 0.9,-0.7 v -0.6 z" /><path
     style="fill:#4d4d4d"
     inkscape:connector-curvature="0"
     id="path462"
     d="m 354.5,179.5 c 1,0 1.5,0.7 1.5,1.6 0,0.9 -0.5,1.6 -1.5,1.6 -1,0 -1.5,-0.7 -1.5,-1.6 0,-0.9 0.5,-1.6 1.5,-1.6 z m 0,2.8 c 0.5,0 1,-0.4 1,-1.2 0,-0.8 -0.4,-1.2 -1,-1.2 -0.5,0 -1,0.4 -1,1.2 0,0.8 0.5,1.2 1,1.2 z" /><path
     style="fill:#4d4d4d"
     inkscape:connector-curvature="0"
     id="path464"
     d="m 357.9,179.6 h 0.5 v 0.7 h 0 c 0.2,-0.5 0.6,-0.7 1.1,-0.7 v 0.5 c -0.8,0 -1.1,0.5 -1.1,1.3 v 1.4 h -0.5 v -3.2 z" /><path
     style="fill:#4d4d4d"
     inkscape:connector-curvature="0"
     id="path466"
     d="m 361,179.5 c 1,0 1.5,0.7 1.5,1.6 0,0.9 -0.5,1.6 -1.5,1.6 -1,0 -1.5,-0.7 -1.5,-1.6 0,-0.9 0.6,-1.6 1.5,-1.6 z m 0,2.8 c 0.5,0 1,-0.4 1,-1.2 0,-0.8 -0.4,-1.2 -1,-1.2 -0.5,0 -1,0.4 -1,1.2 0.1,0.8 0.5,1.2 1,1.2 z" /><path
     style="fill:#4d4d4d"
     inkscape:connector-curvature="0"
     id="path468"
     d="m 363,178.4 h 0.5 v 1.6 h 0 c 0.2,-0.3 0.6,-0.5 1,-0.5 1,0 1.4,0.8 1.4,1.6 0,0.9 -0.5,1.6 -1.4,1.6 -0.3,0 -0.8,-0.1 -1,-0.5 h 0 v 0.4 H 363 v -4.2 z m 1.5,1.5 c -0.7,0 -0.9,0.6 -0.9,1.2 0,0.6 0.3,1.2 1,1.2 0.7,0 0.9,-0.6 0.9,-1.2 -0.1,-0.6 -0.4,-1.2 -1,-1.2 z" /><path
     style="fill:#4d4d4d"
     inkscape:connector-curvature="0"
     id="path470"
     d="m 367.7,179.5 c 1,0 1.5,0.7 1.5,1.6 0,0.9 -0.5,1.6 -1.5,1.6 -1,0 -1.5,-0.7 -1.5,-1.6 0,-0.9 0.6,-1.6 1.5,-1.6 z m 0,2.8 c 0.5,0 1,-0.4 1,-1.2 0,-0.8 -0.4,-1.2 -1,-1.2 -0.6,0 -1,0.4 -1,1.2 0.1,0.8 0.5,1.2 1,1.2 z" /><path
     style="fill:#4d4d4d"
     inkscape:connector-curvature="0"
     id="path472"
     d="m 369.8,182 h 0.7 v 0.6 c 0,0.4 -0.2,0.8 -0.7,0.9 v -0.3 c 0.3,-0.1 0.4,-0.4 0.3,-0.6 h -0.4 V 182 z" /><path
     style="fill:#4d4d4d"
     inkscape:connector-curvature="0"
     id="path474"
     d="M 375.5,182.7 H 375 v -0.4 h 0 c -0.2,0.3 -0.6,0.5 -1,0.5 -1,0 -1.4,-0.8 -1.4,-1.6 0,-0.9 0.5,-1.6 1.4,-1.6 0.3,0 0.8,0.1 1,0.5 h 0 v -1.6 h 0.5 v 4.2 z m -1.4,-0.4 c 0.7,0 0.9,-0.6 0.9,-1.2 0,-0.6 -0.3,-1.2 -1,-1.2 -0.7,0 -0.9,0.6 -0.9,1.2 0,0.6 0.3,1.2 1,1.2 z" /><path
     style="fill:#4d4d4d"
     inkscape:connector-curvature="0"
     id="path476"
     d="m 378.8,181.7 c -0.1,0.7 -0.6,1.1 -1.3,1.1 -1,0 -1.5,-0.7 -1.5,-1.6 0,-0.9 0.6,-1.6 1.5,-1.6 1.1,0 1.4,1 1.4,1.8 h -2.3 c 0,0.5 0.3,1 1,1 0.4,0 0.7,-0.2 0.8,-0.6 h 0.4 z m -0.5,-0.9 c 0,-0.5 -0.4,-0.9 -0.9,-0.9 -0.5,0 -0.9,0.4 -0.9,0.9 h 1.8 z" /><path
     style="fill:#4d4d4d"
     inkscape:connector-curvature="0"
     id="path478"
     d="m 379.2,178.4 h 0.5 v 1.6 h 0 c 0.2,-0.3 0.6,-0.5 1,-0.5 1,0 1.4,0.8 1.4,1.6 0,0.9 -0.5,1.6 -1.4,1.6 -0.3,0 -0.8,-0.1 -1,-0.5 h 0 v 0.4 h -0.5 v -4.2 z m 1.5,1.5 c -0.7,0 -0.9,0.6 -0.9,1.2 0,0.6 0.3,1.2 1,1.2 0.7,0 0.9,-0.6 0.9,-1.2 -0.1,-0.6 -0.4,-1.2 -1,-1.2 z" /><path
     style="fill:#4d4d4d"
     inkscape:connector-curvature="0"
     id="path480"
     d="m 385.3,181.7 c -0.1,0.7 -0.6,1.1 -1.3,1.1 -1,0 -1.5,-0.7 -1.5,-1.6 0,-0.9 0.6,-1.6 1.5,-1.6 1.1,0 1.4,1 1.4,1.8 H 383 c 0,0.5 0.3,1 1,1 0.4,0 0.7,-0.2 0.8,-0.6 h 0.5 z m -0.5,-0.9 c 0,-0.5 -0.4,-0.9 -0.9,-0.9 -0.5,0 -0.9,0.4 -0.9,0.9 h 1.8 z" /><path
     style="fill:#4d4d4d"
     inkscape:connector-curvature="0"
     id="path482"
     d="m 385.7,179.6 h 0.5 v 0.7 h 0 c 0.2,-0.5 0.6,-0.7 1.1,-0.7 v 0.5 c -0.8,0 -1.1,0.5 -1.1,1.3 v 1.4 h -0.5 v -3.2 z" /><path
     style="fill:#4d4d4d"
     inkscape:connector-curvature="0"
     id="path484"
     d="m 390.3,182.7 c -0.1,0.1 -0.2,0.1 -0.4,0.1 -0.3,0 -0.4,-0.1 -0.4,-0.5 -0.3,0.3 -0.7,0.5 -1.1,0.5 -0.6,0 -1,-0.3 -1,-0.9 0,-0.7 0.5,-0.9 1,-1 0.6,-0.1 1,-0.1 1,-0.5 0,-0.4 -0.4,-0.5 -0.7,-0.5 -0.4,0 -0.7,0.1 -0.8,0.6 h -0.5 c 0,-0.8 0.6,-1 1.3,-1 0.6,0 1.2,0.1 1.2,0.9 v 1.6 c 0,0.2 0,0.3 0.2,0.3 0,0 0.1,0 0.2,0 v 0.4 z m -0.8,-1.6 c -0.2,0.1 -0.6,0.1 -0.9,0.2 -0.3,0.1 -0.6,0.2 -0.6,0.6 0,0.3 0.3,0.5 0.6,0.5 0.7,0 0.9,-0.4 0.9,-0.7 v -0.6 z m -0.6,-2.8 h 0.7 l -0.8,0.9 h -0.4 l 0.5,-0.9 z" /><path
     style="fill:#4d4d4d"
     inkscape:connector-curvature="0"
     id="path486"
     d="m 392.1,179.6 h 0.5 v 0.5 h 0 c 0.2,-0.4 0.6,-0.6 1,-0.6 0.8,0 1.1,0.5 1.1,1.1 v 2 h -0.5 v -2.1 c 0,-0.4 -0.2,-0.6 -0.6,-0.6 -0.6,0 -0.9,0.4 -0.9,1 v 1.8 h -0.5 v -3.1 z" /><path
     style="fill:#4d4d4d"
     inkscape:connector-curvature="0"
     id="path488"
     d="m 396.7,179.5 c 1,0 1.5,0.7 1.5,1.6 0,0.9 -0.5,1.6 -1.5,1.6 -1,0 -1.5,-0.7 -1.5,-1.6 0,-0.9 0.5,-1.6 1.5,-1.6 z m 0,2.8 c 0.5,0 1,-0.4 1,-1.2 0,-0.8 -0.4,-1.2 -1,-1.2 -0.5,0 -1,0.4 -1,1.2 0,0.8 0.4,1.2 1,1.2 z" /><path
     style="fill:#4d4d4d"
     inkscape:connector-curvature="0"
     id="path490"
     d="m 399.3,179.6 h 0.6 v 0.4 h -0.6 v 1.9 c 0,0.2 0.1,0.3 0.4,0.3 h 0.2 v 0.4 h -0.4 c -0.5,0 -0.7,-0.1 -0.7,-0.7 v -2 h -0.5 v -0.4 h 0.5 v -0.9 h 0.5 v 1 z" /><path
     style="fill:#4d4d4d"
     inkscape:connector-curvature="0"
     id="path492"
     d="m 400.9,179 h -0.5 v -0.6 h 0.5 v 0.6 z m -0.5,0.6 h 0.5 v 3.1 h -0.5 v -3.1 z" /><path
     style="fill:#4d4d4d"
     inkscape:connector-curvature="0"
     id="path494"
     d="m 401.7,180 h -0.5 v -0.4 h 0.5 v -0.5 c 0,-0.5 0.3,-0.8 0.9,-0.8 0.1,0 0.2,0 0.3,0 v 0.4 c -0.1,0 -0.2,0 -0.3,0 -0.2,0 -0.4,0.1 -0.4,0.3 v 0.4 h 0.6 v 0.4 h -0.6 v 2.7 h -0.5 V 180 z m 1.6,-1 v -0.6 h 0.5 v 0.6 h -0.5 z m 0,3.7 v -3.1 h 0.5 v 3.1 h -0.5 z" /><path
     style="fill:#4d4d4d"
     inkscape:connector-curvature="0"
     id="path496"
     d="m 406.6,180.6 c -0.1,-0.4 -0.3,-0.6 -0.8,-0.6 -0.7,0 -1,0.6 -1,1.2 0,0.6 0.3,1.1 0.9,1.1 0.5,0 0.8,-0.3 0.9,-0.8 h 0.5 c -0.1,0.8 -0.6,1.2 -1.4,1.2 -0.9,0 -1.5,-0.7 -1.5,-1.6 0,-0.9 0.5,-1.7 1.5,-1.7 0.7,0 1.3,0.3 1.3,1.1 h -0.4 z" /><path
     style="fill:#4d4d4d"
     inkscape:connector-curvature="0"
     id="path498"
     d="m 410.3,182.7 c -0.1,0.1 -0.2,0.1 -0.4,0.1 -0.3,0 -0.4,-0.1 -0.4,-0.5 -0.3,0.3 -0.7,0.5 -1.1,0.5 -0.6,0 -1,-0.3 -1,-0.9 0,-0.7 0.5,-0.9 1,-1 0.6,-0.1 1,-0.1 1,-0.5 0,-0.4 -0.4,-0.5 -0.7,-0.5 -0.4,0 -0.7,0.1 -0.8,0.6 h -0.5 c 0,-0.8 0.6,-1 1.3,-1 0.6,0 1.2,0.1 1.2,0.9 v 1.6 c 0,0.2 0,0.3 0.2,0.3 0,0 0.1,0 0.2,0 v 0.4 z m -0.8,-1.6 c -0.2,0.1 -0.6,0.1 -0.9,0.2 -0.3,0.1 -0.6,0.2 -0.6,0.6 0,0.3 0.3,0.5 0.6,0.5 0.7,0 0.9,-0.4 0.9,-0.7 v -0.6 z" /><path
     style="fill:#4d4d4d"
     inkscape:connector-curvature="0"
     id="path500"
     d="m 410.6,179.6 h 0.5 v 0.7 h 0 c 0.2,-0.5 0.6,-0.7 1.1,-0.7 v 0.5 c -0.8,0 -1.1,0.5 -1.1,1.3 v 1.4 h -0.5 v -3.2 z" /><path
     style="fill:#4d4d4d"
     inkscape:connector-curvature="0"
     id="path502"
     d="m 416.8,182.7 c -0.1,0.1 -0.2,0.1 -0.4,0.1 -0.3,0 -0.4,-0.1 -0.4,-0.5 -0.3,0.3 -0.7,0.5 -1.1,0.5 -0.6,0 -1,-0.3 -1,-0.9 0,-0.7 0.5,-0.9 1,-1 0.6,-0.1 1,-0.1 1,-0.5 0,-0.4 -0.4,-0.5 -0.7,-0.5 -0.4,0 -0.7,0.1 -0.8,0.6 H 414 c 0,-0.8 0.6,-1 1.3,-1 0.6,0 1.2,0.1 1.2,0.9 v 1.6 c 0,0.2 0,0.3 0.2,0.3 0,0 0.1,0 0.2,0 v 0.4 z m -0.9,-1.6 c -0.2,0.1 -0.6,0.1 -0.9,0.2 -0.3,0.1 -0.6,0.2 -0.6,0.6 0,0.3 0.3,0.5 0.6,0.5 0.7,0 0.9,-0.4 0.9,-0.7 v -0.6 z" /><path
     style="fill:#4d4d4d"
     inkscape:connector-curvature="0"
     id="path504"
     d="m 418.6,178.4 h 0.5 v 4.3 h -0.5 v -4.3 z" /><path
     style="fill:#4d4d4d"
     inkscape:connector-curvature="0"
     id="path506"
     d="m 422.5,182.7 c -0.1,0.1 -0.2,0.1 -0.4,0.1 -0.3,0 -0.4,-0.1 -0.4,-0.5 -0.3,0.3 -0.7,0.5 -1.1,0.5 -0.6,0 -1,-0.3 -1,-0.9 0,-0.7 0.5,-0.9 1,-1 0.6,-0.1 1,-0.1 1,-0.5 0,-0.4 -0.4,-0.5 -0.7,-0.5 -0.4,0 -0.7,0.1 -0.8,0.6 h -0.5 c 0,-0.8 0.6,-1 1.3,-1 0.6,0 1.2,0.1 1.2,0.9 v 1.6 c 0,0.2 0,0.3 0.2,0.3 0,0 0.1,0 0.2,0 v 0.4 z m -0.8,-1.6 c -0.2,0.1 -0.6,0.1 -0.9,0.2 -0.3,0.1 -0.6,0.2 -0.6,0.6 0,0.3 0.3,0.5 0.6,0.5 0.7,0 0.9,-0.4 0.9,-0.7 v -0.6 z" /><path
     style="fill:#4d4d4d"
     inkscape:connector-curvature="0"
     id="path508"
     d="m 427,181.7 c -0.1,0.7 -0.6,1.1 -1.3,1.1 -1,0 -1.5,-0.7 -1.5,-1.6 0,-0.9 0.6,-1.6 1.5,-1.6 1.1,0 1.4,1 1.4,1.8 h -2.3 c 0,0.5 0.3,1 1,1 0.4,0 0.7,-0.2 0.8,-0.6 h 0.4 z m -0.5,-0.9 c 0,-0.5 -0.4,-0.9 -0.9,-0.9 -0.5,0 -0.9,0.4 -0.9,0.9 h 1.8 z" /><path
     style="fill:#4d4d4d"
     inkscape:connector-curvature="0"
     id="path510"
     d="m 427.4,179.6 h 0.5 v 0.5 h 0 c 0.2,-0.3 0.6,-0.5 1,-0.5 0.4,0 0.7,0.1 0.9,0.5 0.2,-0.3 0.6,-0.5 1,-0.5 0.6,0 1,0.3 1,0.9 v 2.3 h -0.5 v -2 c 0,-0.4 -0.1,-0.7 -0.6,-0.7 -0.5,0 -0.8,0.3 -0.8,0.8 v 1.9 h -0.5 v -2 c 0,-0.4 -0.1,-0.7 -0.6,-0.7 -0.6,0 -0.8,0.6 -0.8,0.8 v 1.9 h -0.5 v -3.2 z" /><path
     style="fill:#4d4d4d"
     inkscape:connector-curvature="0"
     id="path512"
     d="m 432.4,179.6 h 0.5 v 0.4 h 0 c 0.2,-0.3 0.6,-0.5 1,-0.5 1,0 1.4,0.8 1.4,1.6 0,0.9 -0.5,1.6 -1.4,1.6 -0.3,0 -0.8,-0.1 -1,-0.5 h 0 v 1.6 h -0.5 v -4.2 z m 1.5,0.3 c -0.7,0 -0.9,0.6 -0.9,1.2 0,0.6 0.3,1.2 1,1.2 0.7,0 0.9,-0.6 0.9,-1.2 -0.1,-0.6 -0.4,-1.2 -1,-1.2 z" /><path
     style="fill:#4d4d4d"
     inkscape:connector-curvature="0"
     id="path514"
     d="m 435.8,179.6 h 0.5 v 0.7 h 0 c 0.2,-0.5 0.6,-0.7 1.1,-0.7 v 0.5 c -0.8,0 -1.1,0.5 -1.1,1.3 v 1.4 h -0.5 v -3.2 z" /><path
     style="fill:#4d4d4d"
     inkscape:connector-curvature="0"
     id="path516"
     d="m 440.2,181.7 c -0.1,0.7 -0.6,1.1 -1.3,1.1 -1,0 -1.5,-0.7 -1.5,-1.6 0,-0.9 0.6,-1.6 1.5,-1.6 1.1,0 1.4,1 1.4,1.8 H 438 c 0,0.5 0.3,1 1,1 0.4,0 0.7,-0.2 0.8,-0.6 h 0.4 z m -0.5,-0.9 c 0,-0.5 -0.4,-0.9 -0.9,-0.9 -0.5,0 -0.9,0.4 -0.9,0.9 h 1.8 z" /><path
     style="fill:#4d4d4d"
     inkscape:connector-curvature="0"
     id="path518"
     d="m 440.9,181.7 c 0,0.5 0.4,0.6 0.8,0.6 0.3,0 0.7,-0.1 0.7,-0.5 0,-0.4 -0.5,-0.5 -1,-0.6 -0.5,-0.1 -1,-0.3 -1,-0.9 0,-0.6 0.6,-0.9 1.2,-0.9 0.7,0 1.2,0.2 1.3,1 h -0.5 c 0,-0.4 -0.4,-0.5 -0.7,-0.5 -0.3,0 -0.7,0.1 -0.7,0.4 0,0.4 0.5,0.4 1,0.5 0.5,0.1 1,0.3 1,0.9 0,0.7 -0.7,1 -1.3,1 -0.7,0 -1.3,-0.3 -1.3,-1 h 0.5 z" /><path
     style="fill:#4d4d4d"
     inkscape:connector-curvature="0"
     id="path520"
     d="m 446.2,182.7 c -0.1,0.1 -0.2,0.1 -0.4,0.1 -0.3,0 -0.4,-0.1 -0.4,-0.5 -0.3,0.3 -0.7,0.5 -1.1,0.5 -0.6,0 -1,-0.3 -1,-0.9 0,-0.7 0.5,-0.9 1,-1 0.6,-0.1 1,-0.1 1,-0.5 0,-0.4 -0.4,-0.5 -0.7,-0.5 -0.4,0 -0.8,0.1 -0.8,0.6 h -0.5 c 0,-0.8 0.6,-1 1.3,-1 0.6,0 1.2,0.1 1.2,0.9 v 1.6 c 0,0.2 0,0.3 0.2,0.3 0,0 0.1,0 0.2,0 v 0.4 z m -0.8,-1.6 c -0.2,0.1 -0.6,0.1 -0.9,0.2 -0.3,0.1 -0.6,0.2 -0.6,0.6 0,0.3 0.3,0.5 0.6,0.5 0.7,0 0.9,-0.4 0.9,-0.7 v -0.6 z" /><path
     style="fill:#4d4d4d"
     inkscape:connector-curvature="0"
     id="path522"
     d="m 446.7,182 h 0.7 v 0.7 h -0.7 V 182 z" /></g><rect
   fill="#42ae81"
   id="RECUADRO_TITULO"
   height="153.33298"
   width="2342.8303"
   y="522.59735"
   x="292.99307"
   inkscape:label="#rect524" /><g
   transform="matrix(9.9146433,0,0,10.021763,-2700.2385,99.679208)"
   id="g574"><path
     style="fill:none;stroke:#676b6d;stroke-width:0.53909999;stroke-miterlimit:10"
     inkscape:connector-curvature="0"
     id="path576"
     d="M 538.1,42.2 H 301.9 v 102.6 c 0,4.1 3.4,7.5 7.5,7.5 h 221.3 c 4.1,0 7.5,-3.4 7.5,-7.5 V 42.2 z"
     stroke-miterlimit="10" /></g><line
   style="fill:none;stroke:#676b6d;stroke-width:5.37378073;stroke-miterlimit:10"
   id="line578"
   y2="1625.9941"
   x2="1663.1963"
   y1="675.93085"
   x1="1663.1963"
   stroke-miterlimit="10" /><line
   style="fill:none;stroke:#676b6d;stroke-width:5.37378073;stroke-miterlimit:10"
   id="line580"
   y2="835.27649"
   x2="1663.1963"
   y1="835.27649"
   x1="292.99307"
   stroke-miterlimit="10" /><line
   style="fill:none;stroke:#676b6d;stroke-width:5.37378073;stroke-miterlimit:10"
   id="line582"
   y2="994.62299"
   x2="1663.1963"
   y1="994.62299"
   x1="292.99307"
   stroke-miterlimit="10" /><line
   style="fill:none;stroke:#676b6d;stroke-width:5.37378073;stroke-miterlimit:10"
   id="line636"
   y2="1153.9688"
   x2="1663.1963"
   y1="1153.9688"
   x1="292.99307"
   stroke-miterlimit="10" /><text
   xml:space="preserve"
   style="font-size:40px;font-style:normal;font-weight:normal;line-height:125%;letter-spacing:0px;word-spacing:0px;fill:#000000;fill-opacity:1;stroke:none;font-family:Sans"
   x="237.14285"
   y="322.16965"
   id="text3898"
   sodipodi:linespacing="125%"
   transform="translate(252.81251,446.9375)"><tspan
     sodipodi:role="line"
     id="tspan3900" /></text>



<text
   xml:space="preserve"
   style="font-size:79.98999786px;font-style:normal;font-variant:normal;font-weight:normal;font-stretch:normal;text-align:start;line-height:125%;letter-spacing:0px;word-spacing:0px;writing-mode:lr-tb;text-anchor:start;fill:#000000;fill-opacity:0.62433861;stroke:none;font-family:Arial;-inkscape-font-specification:Arial"
   x="372.82495"
   y="786.26257"
   id="NOMBRE"
   sodipodi:linespacing="125%"
   inkscape:label="#text3902"><tspan
     sodipodi:role="line"
     x="372.82495"
     y="786.26257"
     id="tspan3906">Nombre: </tspan></text>



<text
   xml:space="preserve"
   style="font-size:79.98999786px;font-style:normal;font-variant:normal;font-weight:normal;font-stretch:normal;text-align:start;line-height:125%;letter-spacing:0px;word-spacing:0px;writing-mode:lr-tb;text-anchor:start;fill:#000000;fill-opacity:0.62433861;stroke:none;font-family:Arial;-inkscape-font-specification:Arial"
   x="372.82495"
   y="946.26257"
   id="APELLIDO"
   sodipodi:linespacing="125%"
   inkscape:label="#text3902-1"><tspan
     sodipodi:role="line"
     x="372.82495"
     y="946.26257"
     id="tspan4699">Apellido: </tspan></text>



<text
   xml:space="preserve"
   style="font-size:79.98999786px;font-style:normal;font-variant:normal;font-weight:normal;font-stretch:normal;text-align:start;line-height:125%;letter-spacing:0px;word-spacing:0px;writing-mode:lr-tb;text-anchor:start;fill:#000000;fill-opacity:0.62433861;stroke:none;font-family:Arial;-inkscape-font-specification:Arial"
   x="372.82495"
   y="1106.2626"
   id="DNI"
   sodipodi:linespacing="125%"
   inkscape:label="#text3902-1-4"><tspan
     sodipodi:role="line"
     x="372.82495"
     y="1106.2626"
     id="tspan4699-0">DNI: </tspan></text>



<text
   xml:space="preserve"
   style="font-size:100px;font-style:normal;font-variant:normal;font-weight:normal;font-stretch:normal;text-align:center;line-height:125%;letter-spacing:0px;word-spacing:0px;writing-mode:lr-tb;text-anchor:middle;fill:#ffffff;fill-opacity:1;stroke:none;font-family:Arial;-inkscape-font-specification:Arial"
   x="1532.825"
   y="626.26257"
   id="TITULO_CARNET"
   sodipodi:linespacing="125%"
   inkscape:label="#text4724"><tspan
     sodipodi:role="line"
     id="tspan4726"
     x="1532.825"
     y="626.26257">Carnet de Manejo Defensivo</tspan></text>



<image
   sodipodi:absref="C:\Users\mal\Documents\desarrollo\odekmal\trunk\carnetJavaCV\src\main\resources\carnet\templates\IMAGEN"
   xlink:href="IMAGEN"
   y="746.26257"
   x="1692.825"
   id="FOTO"
   height="761.14288"
   width="930.28571"
   inkscape:label="#image4736" /><image
   sodipodi:absref="C:\Users\mal\Documents\desarrollo\odekmal\trunk\carnetJavaCV\src\main\resources\carnet\templates\FOTO"
   xlink:href="FOTO"
   y="1159.9642"
   x="299.95538"
   id="IMAGEN_INFERIOR"
   height="430.2338"
   width="1356"
   inkscape:label="#image4736-9" /></g>
</svg>